<svg xmlns="http://www.w3.org/2000/svg" width="400" height="143" fill="none" viewBox="0 0 400 143">
  <defs></defs>
  <g>
    <path fill="#676463" fill-rule="evenodd" d="M95.73 34.912c-.33.472-.339 10.123-.009 10.397.156.129 4.319.197 14.125.229l13.904.045.75.529c1.033.727 1.753 1.531 1.98 2.211.105.314.321.716.48.892.421.465.449 19.966.03 20.626-.143.225-.387.75-.542 1.166-.267.717-1.187 1.672-2.031 2.111-.913.475-2.761.549-13.597.543-12.116-.007-13.27-.078-14.134-.879-.24-.222-.559-.47-.708-.551-.15-.081-.563-.523-.917-.981l-.644-.833V68.25c0-2.029.026-2.207.416-2.807.665-1.021 1.496-1.919 1.888-2.041.199-.062.587-.271.862-.466.495-.349.623-.354 11.867-.436 7.827-.057 11.423-.14 11.547-.264.376-.375.239-9.782-.146-10.04-.266-.179-2.598-.218-12.246-.203-12.321.02-14.375.107-15.102.645-.231.17-.757.474-1.17.675-2.111 1.026-4.451 2.829-4.998 3.85-.085.159-.401.595-.703.971-.773.961-1.387 2.004-1.637 2.782-.118.366-.39.996-.605 1.4-.223.42-.391 1.026-.393 1.417-.002.376-.083 1.209-.18 1.85-.096.642-.233 1.563-.302 2.047-.07.484-.065 1.234.012 1.667.076.432.22 1.611.32 2.62.189 1.9.888 3.721 2.079 5.416l.7.994c.484.685 3.073 3.173 3.302 3.173.117 0 .437.189.711.419.274.23.777.536 1.119.678a6.24 6.24 0 0 1 1.056.579c.24.175 1.074.438 1.853.583.779.144 1.829.389 2.333.544 1.622.496 26.579.42 28.417-.088a37.702 37.702 0 0 1 2.291-.553c.527-.102 1.057-.284 1.177-.404.121-.121.552-.389.959-.596.407-.207 1-.59 1.319-.852.319-.262.632-.477.695-.477.1 0 .847-.644 1.392-1.199.092-.093.41-.411.708-.705.298-.295.542-.617.542-.717 0-.099.262-.495.583-.879.321-.384.584-.755.584-.826 0-.07.215-.398.478-.729.318-.401.515-.888.591-1.459.063-.471.303-1.218.534-1.659 1.054-2.018 1.027-26.503-.031-27.673-.144-.158-.37-.754-.503-1.325-.133-.572-.428-1.259-.656-1.529-.227-.271-.413-.544-.413-.609 0-.064-.207-.346-.459-.626a117.26 117.26 0 0 1-2.094-2.439c-.108-.132-.46-.417-.781-.633-.321-.216-.637-.48-.704-.587-.067-.108-.367-.294-.667-.414a4.677 4.677 0 0 1-1.011-.601c-.256-.21-.781-.467-1.166-.57a8.257 8.257 0 0 1-1.318-.504c-1.67-.852-3.431-.931-22.779-1.025-8.523-.041-8.733-.034-8.958.287Zm58.298-.252c-4.474.085-4.735.107-4.966.423-.401.547-.256 35.148.151 36.334.158.458.362 1.294.454 1.856.154.944.768 2.261 2.062 4.427.861 1.44 5.019 4.967 5.855 4.967.082 0 .42.188.753.419.392.271 1.083.503 1.957.657.743.131 1.749.369 2.237.53 1.509.498 23.633.563 24.124.072.52-.52.541-10.561.024-10.839-.209-.111-4.127-.186-11.209-.214l-10.887-.042-1.279-.56c-1.58-.691-1.827-.953-2.382-2.523-.731-2.069-.735-2.185-.745-18.838-.011-17.673.035-16.874-.978-16.794-.247.02-2.574.076-5.171.125Zm39.127.443c-.314.508-.322 1.153-.322 27.69v27.17l-.399 1.536c-.517 1.993-1.18 2.737-2.979 3.344l-1.205.407-11.033.083c-7.647.058-11.09.14-11.216.266-.377.377-.144 10.509.249 10.805.404.305 21.689.393 22.764.095.329-.091 1.375-.275 2.324-.408 1.213-.171 1.868-.347 2.203-.595.263-.194.867-.467 1.343-.607.476-.139 1.016-.389 1.199-.555.184-.166.616-.419.962-.561.752-.31 1.039-.566 3.641-3.249.24-.247.595-.761.789-1.142.195-.381.424-.736.51-.789.086-.053.278-.462.426-.909.148-.446.412-.941.586-1.098.929-.841 1.002-3.304 1.001-33.753 0-26.487-.009-27.263-.317-27.73l-.316-.48-4.945-.02-4.944-.02-.321.52Zm114.178-.432c-14.973.103-15.944.161-18.021 1.081-.515.228-1.046.415-1.179.415-.132 0-.61.262-1.061.583-.452.321-.908.583-1.014.583-.106 0-.502.258-.879.574-.378.315-.817.614-.977.665-.159.051-.401.276-.538.5-.136.225-.668.844-1.181 1.377-.514.532-1.067 1.23-1.229 1.551-.162.321-.39.696-.507.833-.117.138-.327.588-.467 1-.14.413-.407 1.092-.594 1.509-.785 1.756-.869 4.029-.817 22.206.042 14.715.079 16.817.298 16.956.399.252 9.991.204 10.5-.053l.416-.211.088-17.078c.098-19.359.019-18.248 1.396-19.646 1.546-1.569.957-1.516 16.839-1.516h13.728l.183-.525c.256-.733.247-9.472-.01-10.331-.174-.582-.243-.64-.708-.606-.284.022-6.703.081-14.266.133Zm29.14.412c-.277.454-.305.943-.306 5.264v4.763l.375.196c.276.143 4.012.206 14.131.236l13.757.041.544.417c1.506 1.154 1.921 1.623 2.503 2.828l.606 1.255v19l-.375.665c-.206.365-.375.729-.375.808 0 .794-1.786 2.48-3 2.833-.358.105-4.915.196-11.833.239-13.002.08-14.097.016-15.173-.883-.362-.302-.714-.575-.784-.606-.402-.178-1.233-1.563-1.397-2.33-.604-2.815.444-5.4 2.687-6.631l1.084-.595 11.238-.046c7.835-.032 11.305-.101 11.458-.229.34-.281.32-9.851-.02-10.134-.295-.244-23.138-.252-25.502-.008-1.072.111-1.622.251-1.96.501a8.689 8.689 0 0 1-1.176.681c-1.372.648-2.714 1.527-3.622 2.373-.76.708-2.133 2.405-2.461 3.043-.208.405-.447.736-.53.736-.083 0-.272.412-.418.917a10.643 10.643 0 0 1-.67 1.674c-.221.417-.453 1.111-.514 1.542a30.998 30.998 0 0 1-.424 2.117c-.502 2.134-.412 3.685.433 7.5.142.642.395 1.354.561 1.583.167.23.393.686.501 1.015.108.329.383.85.61 1.157.227.308.412.657.412.776 0 .321 3.386 3.631 4.118 4.025.348.188.97.507 1.382.71.413.203.938.507 1.167.675.229.168 1.017.417 1.75.553.733.137 1.746.38 2.25.542 1.407.451 26.952.454 28.287.004.479-.162 1.439-.403 2.132-.535.727-.139 1.453-.392 1.713-.597.248-.195.682-.451.964-.569 1.045-.437 4.737-3.62 4.737-4.084 0-.088.226-.417.501-.73.276-.314.609-.876.741-1.25.131-.374.386-.888.567-1.144.18-.255.377-.764.438-1.131s.257-.917.435-1.222c.915-1.572.982-25.86.075-27.245-.14-.213-.355-.719-.479-1.126a6.082 6.082 0 0 0-.668-1.389c-.244-.356-.443-.743-.443-.859 0-.207-.535-.93-1.783-2.409-.837-.992-2.71-2.589-3.224-2.751-.225-.07-.619-.303-.876-.517-.256-.215-.769-.472-1.139-.571a7.712 7.712 0 0 1-1.294-.505c-.341-.177-1.215-.398-1.943-.49A49.565 49.565 0 0 1 364 34.83c-.559-.104-6.051-.185-14.07-.208l-13.152-.039-.305.5Zm-111.225-.041c-.05.206-.07 2.625-.045 5.375l.047 5 14.167.083c8.571.05 14.265.146 14.416.243 1.003.639 1.843 1.446 2.415 2.319l.669 1.021V59.5c0 11.1.035 10.592-.834 11.833-.454.649-.475.672-1.13 1.251-1.225 1.083-1.811 1.124-15.203 1.056-12.825-.065-12.056.006-13.781-1.268-.728-.538-1.002-.869-1.231-1.49-.162-.439-.405-.929-.539-1.087-1.186-1.399.497-5.272 2.884-6.639l1-.573 11.5-.083 11.5-.083.047-4.834c.026-2.658.006-5.002-.045-5.208l-.091-.375-12.289.009c-13.472.01-14.546.058-15.498.702-.343.232-.811.476-1.04.541a2.322 2.322 0 0 0-.75.414c-.184.162-.596.427-.917.589-.321.162-.681.433-.801.603-.12.17-.313.309-.43.309-.297 0-2.599 2.482-3.102 3.344a39.867 39.867 0 0 1-.974 1.558 5.002 5.002 0 0 0-.73 1.845c-.095.552-.357 1.32-.582 1.708-.788 1.358-.722 8.687.088 9.813.19.265.424.92.519 1.457.113.637.333 1.166.634 1.528.803.962 1.502 1.984 1.617 2.363.061.202.24.407.397.457.157.05.397.274.533.498.253.415.797.852 2.206 1.773.435.285.792.58.792.657 0 .077.281.232.625.345.343.113.89.381 1.215.596.325.214 1.037.47 1.583.568.547.098 1.631.342 2.41.542 1.397.359 1.594.364 14.417.364h13l2.25-.572c1.237-.315 2.4-.704 2.583-.864.183-.16.671-.447 1.083-.638 1.248-.578 4.326-3.14 4.332-3.605.001-.099.189-.355.418-.571.23-.215.417-.48.417-.589 0-.109.222-.478.493-.819.272-.342.543-.783.602-.981.06-.198.32-.848.577-1.444.29-.672.514-1.558.588-2.333.066-.688.236-1.588.378-2 .407-1.18.496-18.711.106-20.791a89.84 89.84 0 0 1-.481-2.876c-.132-.903-.368-1.713-.652-2.233-.244-.449-.444-.948-.444-1.109 0-.161-.244-.592-.542-.958a52.777 52.777 0 0 1-1.125-1.445c-.321-.43-.72-.907-.888-1.06a3.166 3.166 0 0 1-.542-.729c-.131-.248-.556-.605-.945-.794-.936-.455-1.866-1.032-2.332-1.446-.207-.185-.699-.428-1.093-.54a9.265 9.265 0 0 1-1.483-.612c-.443-.235-1.055-.41-1.45-.413-.376-.003-1.284-.114-2.017-.247-1.09-.197-3.802-.241-14.872-.244l-13.538-.003-.092.375ZM105.444 93.611c-.224.225-.128 34.358.098 34.502.352.224 3.952.275 4.65.066l.641-.192v-17.071c0-16.707-.007-17.075-.322-17.243-.351-.188-4.885-.243-5.067-.062ZM11.657 95.87c-.293.108-.324.291-.326 1.916-.001.989-.046 1.96-.099 2.16-.218.813.357.887 6.839.887h5.921l.296.451c.275.419.301 1.384.383 13.709.048 7.291.104 13.276.125 13.299.216.239 4.522.001 4.762-.263.251-.278.275-1.428.275-13.092 0-13.882-.026-13.477.912-13.905.313-.142 2.113-.199 6.313-.199 3.918 0 5.934-.059 6.052-.176.202-.202.119-4.491-.091-4.704-.162-.164-30.924-.246-31.362-.083Zm39.383 8.294c-1.255.093-1.615.182-1.927.475-.212.199-.467.361-.568.361-.437 0-2.437 1.946-2.826 2.75a30.717 30.717 0 0 1-.686 1.333c-.479.847-.425 13.859.059 14.528.188.26.514.806.723 1.214.385.75 1.456 1.812 2.445 2.425.296.183.749.483 1.006.666.578.411 12.024.633 13.276.258l.658-.197-.059-2.142c-.032-1.177-.12-2.203-.196-2.28-.076-.076-2.701-.176-5.834-.222-6.079-.089-5.984-.075-6.861-.996l-.5-.525-.051-5.114c-.08-8.172-.584-7.705 8.283-7.688 6.17.012 6.652.065 7.436.825 1.466 1.421.91 4.307-.932 4.836-.314.09-2.882.162-5.763.162-2.858 0-5.314.046-5.459.101-.372.143-.394 4.417-.025 4.723.411.342 12.365.174 13.011-.183.275-.151.875-.472 1.333-.712.459-.24.909-.531 1-.647.092-.116.411-.382.709-.591.298-.209.541-.512.541-.673 0-.162.223-.63.495-1.04 1.066-1.611 1.2-6.234.219-7.599a20.384 20.384 0 0 1-.63-.954c-.45-.727-1.411-1.604-2.192-1.999-.353-.179-.807-.47-1.009-.647-.619-.543-10.551-.827-15.676-.448Zm31.515-.009c-1.387.078-1.785.161-2.186.458-.27.2-.745.473-1.055.606-.514.221-.793.467-2.176 1.918-.244.257-.498.762-.562 1.123-.065.361-.296 1.086-.514 1.61-.558 1.345-.62 11.489-.077 12.681.175.384.371.983.436 1.33.179.954 1.73 2.682 3.092 3.445.253.142.71.407 1.015.591.681.409 18.424.635 18.899.241.315-.261.35-4.481.04-4.791-.15-.15-2.213-.2-8.256-.2-10.967 0-10.377.399-10.378-7.021 0-4.72.159-5.423 1.442-6.405l.642-.491 8.155-.046c5.597-.032 8.224-.104 8.375-.229.397-.329.306-4.584-.103-4.802-.34-.183-13.6-.196-16.789-.018Zm32.145-.004c-.303.079-.592.186-.644.237-.163.164-.046 4.355.127 4.529.101.101 2.366.199 5.752.25l5.585.083.907.944.906.943v8.426c0 8.159.011 8.431.323 8.598.464.248 4.391.225 4.644-.028.269-.268.286-17.901.019-18.863-.099-.356-.324-.801-.5-.99-.175-.189-.319-.429-.319-.533 0-.437-2.28-2.424-3.448-3.006l-1.198-.597-5.802-.068c-3.191-.037-6.05-.003-6.352.075Z" clip-rule="evenodd"/>
    <path fill="#68C0B4" fill-rule="evenodd" d="m48.083 18.164-22.166.086-.834.367c-.458.202-1.169.453-1.58.559a9.124 9.124 0 0 0-1.536.591c-.434.22-.898.4-1.032.4s-.466.187-.739.417a6.03 6.03 0 0 1-1.137.712c-1.286.591-4.416 3.763-5.276 5.346-.89 1.638-1.083 1.983-1.407 2.505-.192.311-.432 1.04-.534 1.621-.101.582-.351 1.415-.554 1.853-.567 1.215-.572 8.927-.008 9.962.2.367.415 1.042.477 1.5.136 1 1.302 3.48 2.233 4.75.37.504.85 1.179 1.068 1.5.563.831 2.001 2.215 2.854 2.748.273.17.573.371.667.447.816.658 2.035 1.472 2.204 1.472.114 0 .604.183 1.087.407.484.224 1.217.493 1.63.597.412.105 1.313.39 2 .635l1.25.444 16.667.084 16.666.083 1.16.561c.638.309 1.362.759 1.608 1 .247.241.53.514.628.606 2.559 2.394 2.958 8.31.726 10.782-1.375 1.522-1.955 1.96-2.845 2.145a9.182 9.182 0 0 0-1.584.501c-.668.303-1.523.315-24.193.323-19.272.008-23.552.049-23.791.231-.332.252-.452 10.423-.129 10.934.139.221 3.021.25 24.289.25h24.131l1.5-.359a93.867 93.867 0 0 1 2.467-.555c.531-.108 1.744-.597 2.695-1.087 2.319-1.195 2.462-1.287 4.227-2.758.215-.178.444-.324.511-.324s.491-.46.944-1.021c.453-.562.952-1.159 1.109-1.328.157-.168.47-.67.695-1.114.225-.444.528-.906.673-1.026.144-.12.263-.289.263-.375 0-.086.183-.546.408-1.021.224-.476.556-1.503.738-2.282.182-.779.463-1.829.624-2.333 1.258-3.929-.444-11.857-3.394-15.81-.445-.596-2.921-3.053-3.539-3.512-1.164-.863-2.75-1.845-2.982-1.845-.133 0-.571-.192-.972-.427a8.64 8.64 0 0 0-1.598-.684c-.478-.141-.944-.317-1.035-.391-.605-.489-2.28-.548-18.417-.647-16.376-.1-16.419-.102-17.167-.461-.412-.197-1.014-.409-1.336-.469-.554-.104-1.427-.816-2.687-2.191-1.751-1.91-1.815-8.013-.103-9.845 1.156-1.237 2-1.93 3.043-2.499l1.167-.636 21.386-.039c11.763-.021 21.457-.082 21.542-.135.09-.055.155-2.37.155-5.552 0-5.456-.047-5.935-.575-5.818-.096.021-10.15.077-22.342.125Z" clip-rule="evenodd"/>
    <path fill="#848484" fill-rule="evenodd" d="M95.509 34.235c-.633.354-.651.523-.664 5.953-.01 4.553.018 5.129.264 5.333.227.189 2.71.244 14.041.312l13.767.084.916.475c2.843 1.475 2.75 1.035 2.75 13.108 0 12.239.094 11.783-2.75 13.353-.528.292-24.065.434-25.375.154-4.663-1.001-5.1-7.798-.615-9.563.887-.349 1.158-.359 12.098-.442 10.706-.082 11.206-.099 11.542-.403.396-.359.558-9.899.18-10.606-.367-.686-.446-.69-12.305-.674-15.608.022-15.579.017-20.471 3.579-.986.718-2.803 2.86-3.233 3.81-.114.252-.261.459-.327.459s-.282.393-.482.875a20.537 20.537 0 0 1-.688 1.484c-.18.335-.434 1.31-.564 2.166-.13.857-.354 2.005-.498 2.551-.791 3.001.347 8.15 2.542 11.507 1.803 2.757 5.432 5.533 8.28 6.333.55.154 1.375.404 1.833.555.748.247 2.311.275 15.25.277l14.417.002 1.75-.564c1.704-.548 2.163-.776 4.134-2.05 1.379-.892 3.3-2.798 4.128-4.094.395-.619.88-1.334 1.077-1.588.197-.254.464-.912.592-1.462.128-.551.355-1.187.504-1.414 1.495-2.282 1.526-25.274.038-28.578a15.985 15.985 0 0 1-.59-1.581c-.139-.457-.413-1.034-.61-1.281a56.755 56.755 0 0 1-.94-1.245c-2.531-3.446-5.347-5.28-9.849-6.413l-2.234-.562-13.75-.039c-11.395-.033-13.82 0-14.158.189Zm53.661-.09c-.755.216-.758.303-.668 19.468.085 18.125.085 18.138.45 19.174.2.57.415 1.304.476 1.631.061.326.291.858.51 1.181.219.323.558.9.753 1.282 1.676 3.286 5.486 6.186 9.809 7.468l1.917.568h12.388c12.071 0 12.394-.009 12.625-.324.434-.593.34-10.919-.103-11.395-.187-.201-.468-.368-.625-.371-.157-.004-5.048-.022-10.869-.042l-10.583-.035-1.297-.402c-3.182-.987-3 .223-3.112-20.717-.086-15.978-.108-16.97-.388-17.25-.315-.315-10.282-.523-11.283-.236Zm43.793.047c-.809.296-.794-.22-.795 28.794-.001 30.748.059 29.158-1.148 30.37-1.24 1.245-.739 1.198-13.565 1.269l-11.461.062-.264.404c-.329.501-.4 10.947-.079 11.547.287.535.822.556 12.932.495l11.334-.057 1.681-.451c1.545-.414 3.235-1.071 4.485-1.744 2.161-1.163 2.254-1.239 4.927-4.02 1.232-1.282 2.583-4.18 3.12-6.694l.445-2.084.05-28.218c.053-30.319.079-29.37-.819-29.683-.669-.233-10.202-.224-10.843.01Zm32.109.154c-.49.541-.596 10.763-.116 11.197.279.253 1.517.282 14.133.326l13.828.048.833.474c1.12.637 1.499 1.012 2.221 2.192l.612 1v19.834l-.631 1.166c-.6 1.109-1.254 1.764-2.285 2.288-.542.276-24.128.403-25.368.137-4.578-.982-5.09-7.547-.738-9.472l1.022-.453 11.161-.046c11.155-.046 11.161-.046 11.542-.404.557-.523.599-9.856.049-10.758l-.33-.542h-11.454c-13.757 0-14.686.07-17.175 1.28-.847.412-1.584.819-1.636.904-.053.085-.379.299-.726.476-1.817.927-5.437 5.425-5.85 7.269a10.253 10.253 0 0 1-.516 1.569c-1.012 2.284-1.045 8.704-.057 11.002.217.504.474 1.232.573 1.618.098.385.346.91.551 1.166.205.257.666.916 1.025 1.466 1.006 1.541 4.536 4.75 5.225 4.75.085 0 .431.187.767.416.337.228 1.266.608 2.065.843.799.235 1.753.516 2.12.626.494.147 4.392.198 15.083.197l14.417-.002 1.76-.607c.968-.334 2.031-.783 2.362-.998a70.64 70.64 0 0 1 1.506-.938c3.027-1.832 5.98-6.088 6.557-9.453.142-.825.383-1.875.536-2.334.432-1.291.422-21.46-.01-22.583-.159-.413-.394-1.35-.523-2.083-.376-2.141-1.501-4.096-4.007-6.959-.461-.527-.91-.958-.997-.958-.087 0-.296-.125-.466-.278-1.299-1.176-4.086-2.464-6.718-3.104l-2.167-.528-13.928-.049-13.929-.05-.321.355ZM294 34.112c-.229.036-1.167.245-2.083.463-.917.218-1.918.448-2.225.511-.723.148-2.955 1.166-3.112 1.419-.066.108-.375.302-.686.432-1.633.682-5.727 4.949-5.727 5.968 0 .067-.263.667-.584 1.335-.398.827-.663 1.713-.83 2.779-.136.86-.321 1.864-.412 2.231-.194.778-.239 34.895-.047 35.183.344.516.912.567 6.26.567 4.907 0 5.442-.027 5.76-.292l.351-.291.042-17.334.043-17.333.388-.788c.446-.905 1.124-1.532 2.195-2.03.74-.344.936-.349 14.813-.387 15.094-.042 14.413.002 14.643-.938.301-1.235-.014-11.116-.363-11.371-.305-.223-27.071-.34-28.426-.124Zm42.209.091c-.613.296-.707 1.116-.708 6.146-.001 4.633.009 4.775.35 5.084.337.305.875.32 14.041.4l13.691.084.802.395c1.178.579 2.254 1.719 2.675 2.831.349.92.357 1.143.357 10.357 0 11.703.125 11.071-2.61 13.167l-.544.416H351.59c-11.759 0-12.715-.021-13.257-.293-3.819-1.918-3.965-7.263-.248-9.123l1.165-.584L350.424 63c10.334-.077 11.208-.106 11.625-.379l.451-.295v-9.987l-.463-.518-.462-.518-11.477.022c-15.199.03-15.152.024-19.201 2.611-4.862 3.106-7.839 9.799-7.256 16.314.663 7.401 6.571 13.548 14.026 14.593 1.401.197 26.899.184 28.117-.013 1.25-.203 4.023-1.09 4.377-1.401.141-.123.576-.385.968-.582 1.157-.582 4.538-3.565 4.538-4.005 0-.082.205-.394.455-.691.488-.58 1.878-3.255 1.878-3.615 0-.119.144-.498.32-.844 1.067-2.091 1.223-25.449.188-28.215-.47-1.257-1.785-3.775-2.315-4.433-1.197-1.486-2.141-2.5-2.681-2.877-.327-.229-.674-.516-.769-.638-.225-.286-1.501-1.028-3.067-1.784-1.1-.531-1.975-.772-5.759-1.587-1.017-.219-27.249-.176-27.708.045Zm-217.792.52c5.345.06 7.854.317 9.05.927.34.173.933.4 1.318.504.385.103.91.36 1.166.57.256.21.711.48 1.011.601.3.12.6.306.667.414.067.107.383.371.704.587.321.216.673.501.781.633a117.26 117.26 0 0 0 2.094 2.439c.252.28.459.562.459.626 0 .065.186.338.413.609.228.27.523.957.656 1.529.133.571.359 1.167.503 1.325.557.616.629 1.846.711 12.096.093 11.682-.023 14.318-.68 15.577-.231.441-.471 1.188-.534 1.659-.076.571-.273 1.058-.591 1.459-.263.331-.478.659-.478.729 0 .071-.263.442-.584.826-.321.384-.583.78-.583.879 0 .1-.244.422-.542.717-.298.294-.616.612-.708.705-.545.555-1.292 1.199-1.392 1.199-.063 0-.376.215-.695.477a8.762 8.762 0 0 1-1.319.852c-.407.207-.838.475-.959.596-.12.12-.65.302-1.177.404-.527.102-1.558.351-2.291.553-1.838.508-26.795.584-28.417.088-.504-.155-1.554-.4-2.333-.544-.779-.145-1.613-.408-1.853-.583a6.24 6.24 0 0 0-1.056-.579 5.184 5.184 0 0 1-1.119-.678c-.274-.23-.594-.419-.711-.419-.229 0-2.818-2.488-3.302-3.173l-.7-.994c-1.191-1.695-1.89-3.516-2.079-5.416-.1-1.009-.244-2.188-.32-2.62-.077-.433-.082-1.183-.012-1.667.069-.484.206-1.405.302-2.047.097-.641.178-1.474.18-1.85.002-.391.17-.997.393-1.417.215-.404.487-1.034.605-1.4.25-.778.864-1.821 1.637-2.782.302-.376.618-.812.703-.971.547-1.021 2.887-2.824 4.998-3.85.413-.201.939-.505 1.17-.675.727-.538 2.781-.625 15.102-.645 9.648-.015 11.98.024 12.246.203.385.258.522 9.665.146 10.04-.124.124-3.72.207-11.547.264-11.244.082-11.372.087-11.867.436-.275.195-.663.404-.862.466-.392.122-1.223 1.02-1.888 2.041-.39.6-.416.778-.416 2.807v2.167l.644.833c.354.458.767.9.917.981.149.081.468.329.708.551.864.801 2.018.872 14.134.879 10.836.006 12.684-.068 13.597-.543.844-.439 1.764-1.394 2.031-2.111.155-.416.399-.941.542-1.166.419-.66.391-20.161-.03-20.626-.159-.176-.375-.578-.48-.892-.227-.68-.947-1.484-1.98-2.211l-.75-.529-13.904-.045c-9.806-.032-13.969-.1-14.125-.229-.33-.274-.321-9.925.009-10.397.243-.346 4.992-.386 22.687-.189Zm41.49.147c.231.329.261 2.178.27 16.459.01 16.653.014 16.769.745 18.838.555 1.57.802 1.832 2.382 2.523l1.279.56 10.887.042c7.082.028 11 .103 11.209.214.517.278.496 10.319-.024 10.839-.491.491-22.615.426-24.124-.072-.488-.161-1.494-.399-2.237-.53-.874-.154-1.565-.386-1.957-.657-.333-.231-.671-.419-.753-.419-.836 0-4.994-3.527-5.855-4.967-1.294-2.166-1.908-3.483-2.062-4.427a13.702 13.702 0 0 0-.454-1.856c-.407-1.186-.552-35.787-.151-36.334.231-.316.492-.338 4.966-.423 2.597-.049 4.924-.105 5.171-.125a.737.737 0 0 1 .708.335Zm43.774.233c.308.467.317 1.243.317 27.73.001 30.449-.072 32.912-1.001 33.753-.174.157-.438.652-.586 1.098-.148.447-.34.856-.426.909-.086.053-.315.408-.51.789-.194.381-.549.895-.789 1.142-2.602 2.683-2.889 2.939-3.641 3.249-.346.142-.778.395-.962.561-.183.166-.723.416-1.199.555-.476.14-1.08.413-1.343.607-.335.248-.99.424-2.203.595-.949.133-1.995.317-2.324.408-1.075.298-22.36.21-22.764-.095-.393-.296-.626-10.428-.249-10.805.126-.126 3.569-.208 11.216-.266l11.033-.083 1.205-.407c1.799-.607 2.462-1.351 2.979-3.344l.399-1.536v-27.17c0-26.537.008-27.182.322-27.69l.321-.52 4.944.02 4.945.02.316.48Zm118.626.041c.257.859.266 9.598.01 10.331l-.183.525h-13.728c-15.882 0-15.293-.053-16.839 1.516-1.377 1.398-1.298.287-1.396 19.646l-.088 17.078-.416.211c-.509.257-10.101.305-10.5.053-.219-.139-.256-2.241-.298-16.956-.052-18.177.032-20.45.817-22.206.187-.417.454-1.096.594-1.509.14-.412.35-.862.467-1 .117-.137.345-.512.507-.833.162-.321.715-1.019 1.229-1.551.513-.533 1.045-1.152 1.181-1.377.137-.224.379-.449.538-.5.16-.051.599-.35.977-.665.377-.316.773-.574.879-.574.106 0 .562-.262 1.014-.583.451-.321.929-.583 1.061-.583.133 0 .664-.187 1.179-.415 2.077-.92 3.048-.978 18.021-1.081 7.563-.052 13.982-.111 14.266-.133.465-.034.534.024.708.606ZM364 34.83c.504.093 1.512.244 2.241.336.728.092 1.602.313 1.943.49.341.178.923.405 1.294.505.37.099.883.356 1.139.571.257.214.651.447.876.517.514.162 2.387 1.759 3.224 2.751 1.248 1.479 1.783 2.202 1.783 2.409 0 .116.199.503.443.859.244.357.545.982.668 1.389.124.407.339.913.479 1.126.479.731.566 2.83.568 13.634.002 11.087-.071 12.628-.643 13.611a4.305 4.305 0 0 0-.435 1.222c-.061.367-.258.876-.438 1.131-.181.256-.436.77-.567 1.144a4.585 4.585 0 0 1-.741 1.25c-.275.313-.501.642-.501.73 0 .464-3.692 3.647-4.737 4.084a5.012 5.012 0 0 0-.964.569c-.26.205-.986.458-1.713.597-.693.132-1.653.373-2.132.535-1.335.45-26.88.447-28.287-.004-.504-.162-1.517-.405-2.25-.542-.733-.136-1.521-.385-1.75-.553-.229-.168-.754-.472-1.167-.675a50.551 50.551 0 0 1-1.382-.71c-.732-.394-4.118-3.704-4.118-4.025 0-.119-.185-.468-.412-.776a4.956 4.956 0 0 1-.61-1.157 4.426 4.426 0 0 0-.501-1.015c-.166-.229-.419-.941-.561-1.583-.845-3.815-.935-5.366-.433-7.5.172-.733.363-1.686.424-2.117.061-.431.293-1.125.514-1.542.222-.417.523-1.17.67-1.674.146-.505.335-.917.418-.917.083 0 .322-.331.53-.736.328-.638 1.701-2.335 2.461-3.043.908-.846 2.25-1.725 3.622-2.373.388-.184.917-.49 1.176-.681.338-.25.888-.39 1.96-.501 2.364-.244 25.207-.236 25.502.008.34.283.36 9.853.02 10.134-.153.128-3.623.197-11.458.229l-11.238.046-1.084.595c-2.243 1.231-3.291 3.816-2.687 6.631.164.767.995 2.152 1.397 2.33.07.031.422.304.784.606 1.076.899 2.171.963 15.173.883 6.918-.043 11.475-.134 11.833-.239 1.214-.353 3-2.039 3-2.833 0-.079.169-.443.375-.808l.375-.665v-19l-.606-1.255c-.582-1.205-.997-1.674-2.503-2.828l-.544-.417-13.757-.041c-10.119-.03-13.855-.093-14.131-.236l-.375-.196v-4.763c.001-4.321.029-4.81.306-5.264l.305-.5 13.152.039c8.019.023 13.511.104 14.07.208Zm-110.25.084c.733.133 1.641.244 2.017.247.395.003 1.007.178 1.45.413a9.265 9.265 0 0 0 1.483.612c.394.112.886.355 1.093.54.466.414 1.396.991 2.332 1.446.389.189.814.546.945.794.13.248.374.576.542.729.168.153.567.63.888 1.06.321.429.827 1.08 1.125 1.445.298.366.542.797.542.958 0 .161.2.66.444 1.109.284.52.52 1.33.652 2.233.114.779.331 2.073.481 2.876.39 2.08.301 19.611-.106 20.791-.142.412-.312 1.312-.378 2a8.266 8.266 0 0 1-.588 2.333c-.257.596-.517 1.246-.577 1.444-.059.198-.33.639-.602.981-.271.341-.493.71-.493.819 0 .109-.187.374-.417.589-.229.216-.417.472-.418.571-.006.465-3.084 3.027-4.332 3.605-.412.191-.9.478-1.083.638-.183.16-1.346.549-2.583.864l-2.25.572h-13c-12.823 0-13.02-.005-14.417-.364-.779-.2-1.863-.444-2.41-.542-.546-.098-1.258-.354-1.583-.568a6.152 6.152 0 0 0-1.215-.596c-.344-.113-.625-.268-.625-.345 0-.077-.357-.372-.792-.657-1.409-.921-1.953-1.358-2.206-1.773-.136-.224-.376-.448-.533-.498-.157-.05-.336-.255-.397-.457-.115-.379-.814-1.401-1.617-2.363-.301-.362-.521-.891-.634-1.528-.095-.537-.329-1.192-.519-1.457-.81-1.126-.876-8.455-.088-9.813.225-.388.487-1.156.582-1.708.111-.64.374-1.306.73-1.845.306-.463.745-1.165.974-1.558.503-.862 2.805-3.344 3.102-3.344.117 0 .31-.139.43-.309.12-.17.48-.441.801-.603.321-.162.733-.427.917-.589.183-.162.521-.348.75-.414.229-.065.697-.309 1.04-.541.952-.644 2.026-.692 15.498-.702L250.994 52l.091.375c.051.206.071 2.55.045 5.208l-.047 4.834-11.5.083-11.5.083-1 .573c-2.387 1.367-4.07 5.24-2.884 6.639.134.158.377.648.539 1.087.229.621.503.952 1.231 1.49 1.725 1.274.956 1.203 13.781 1.268 13.392.068 13.978.027 15.203-1.056.655-.579.676-.602 1.13-1.251.869-1.241.834-.733.834-11.833V49.083l-.669-1.021c-.572-.873-1.412-1.68-2.415-2.319-.151-.097-5.845-.193-14.416-.243l-14.167-.083-.047-5c-.025-2.75-.005-5.169.045-5.375l.092-.375 13.538.003c11.07.003 13.782.047 14.872.244ZM105.22 93.386c-.396.503-.318 34.75.08 35.147.387.387 5.24.301 5.683-.1l.35-.318v-17.224c0-17.002-.004-17.229-.333-17.558-.549-.549-5.34-.505-5.78.053Zm5.291.287c.315.168.322.536.322 17.243v17.071l-.641.192c-.698.209-4.298.158-4.65-.066-.226-.144-.322-34.277-.098-34.502.182-.181 4.716-.126 5.067.062Zm-98.87 1.688c-.876.179-.974.465-.974 2.83 0 3.512-.445 3.309 7.27 3.309h5.888l.254.492c.222.428.254 2.154.254 13.391 0 12.494.01 12.908.319 13.187.553.501 4.836.323 5.418-.224l.43-.404v-25.717l.386-.363c.381-.357.459-.362 6.221-.362h5.835l.378-.403c.494-.526.547-4.933.066-5.464-.277-.307-30.319-.564-31.745-.272Zm31.378.592c.21.213.293 4.502.091 4.704-.118.117-2.134.176-6.052.176-4.2 0-6 .057-6.313.199-.938.428-.912.023-.912 13.905 0 11.664-.024 12.814-.275 13.092-.24.264-4.546.502-4.762.263-.021-.023-.077-6.008-.125-13.299-.082-12.325-.108-13.29-.383-13.709l-.296-.451h-5.921c-6.482 0-7.057-.074-6.839-.887.053-.2.098-1.171.099-2.16.002-1.625.033-1.808.326-1.916.438-.163 31.2-.081 31.362.083Zm6.994 7.903c-1.436.238-3.927 2.071-4.499 3.311-.148.32-.405.784-.57 1.03-.721 1.072-1.136 11.059-.593 14.289.323 1.925 1.861 4.19 3.36 4.947.296.15.694.414.883.586.668.61 2.021.728 8.379.729l6.056.002.319-.393c.476-.588.476-4.459 0-5.047l-.318-.393-5.723-.084-5.724-.083-.695-.559c-.88-.708-.943-1.224-.862-7.064l.057-4.122.711-.711.711-.711 6.299-.047 6.3-.047.766.585c1.219.93 1.299 2.567.178 3.655-.763.741-1.314.799-7.221.758-5.938-.042-5.494-.26-5.494 2.694 0 3.426-.423 3.22 6.5 3.169 9.139-.068 10.955-.932 12.611-5.998 1.49-4.561-1.508-9.88-5.93-10.52-1.375-.199-14.278-.179-15.501.024Zm31.292-.019c-1.987.336-4.617 2.537-5.22 4.369a60.386 60.386 0 0 1-.571 1.627c-.747 2.036-.46 12.46.389 14.084.144.275.262.596.263.714 0 .117.244.471.542.786.298.314.703.783.899 1.041 1.578 2.07 3.332 2.373 13.781 2.374l7.971.001.487-.487.487-.487v-2.157c0-2.108-.01-2.166-.439-2.596l-.439-.439h-8.056c-10.798 0-9.793.611-9.866-6-.061-5.494-.028-5.711.972-6.437l.745-.541 8.029-.011 8.029-.011.513-.432.512-.431v-2.223c0-3.239 1.058-2.919-9.564-2.895-4.777.011-9.036.079-9.464.151Zm32.454.2c-.204.291-.259.856-.259 2.641 0 3.171-.578 2.885 6.059 2.989 7.924.123 7.165-.931 7.274 10.11l.084 8.419.393.319c.612.495 4.613.475 5.251-.027l.439-.346v-8.79c0-11.057-.067-11.409-2.627-13.697-2.047-1.83-2.869-1.986-10.489-1.987l-5.865-.001-.26.37Zm-49.293.118c1.493.107 1.959.202 2.25.457.202.177.656.468 1.009.647.781.395 1.742 1.272 2.192 1.999.183.297.467.726.63.954.981 1.365.847 5.988-.219 7.599-.272.41-.495.878-.495 1.04 0 .161-.243.464-.541.673-.298.209-.617.475-.709.591-.091.116-.541.407-1 .647-.458.24-1.058.561-1.333.712-.646.357-12.6.525-13.011.183-.369-.306-.347-4.58.025-4.723.145-.055 2.601-.101 5.459-.101 2.881 0 5.449-.072 5.763-.162 1.842-.529 2.398-3.415.932-4.836-.784-.76-1.266-.813-7.436-.825-8.867-.017-8.363-.484-8.283 7.688l.051 5.114.5.525c.877.921.782.907 6.861.996 3.133.046 5.758.146 5.834.222.076.077.164 1.103.196 2.28l.059 2.142-.658.197c-1.252.375-12.698.153-13.276-.258-.257-.183-.71-.483-1.006-.666-.989-.613-2.06-1.675-2.445-2.425a11.486 11.486 0 0 0-.723-1.214c-.484-.669-.538-13.681-.059-14.528.155-.275.464-.875.686-1.333.389-.804 2.389-2.75 2.826-2.75.101 0 .356-.162.568-.361.605-.568 10.047-.866 15.353-.484Zm34.878.018c.409.218.5 4.473.103 4.802-.151.125-2.778.197-8.375.229l-8.155.046-.642.491c-1.283.982-1.442 1.685-1.442 6.405.001 7.42-.589 7.021 10.378 7.021 6.043 0 8.106.05 8.256.2.31.31.275 4.53-.04 4.791-.475.394-18.218.168-18.899-.241a45.314 45.314 0 0 0-1.015-.591c-1.362-.763-2.913-2.491-3.092-3.445a7.03 7.03 0 0 0-.436-1.33c-.543-1.192-.481-11.336.077-12.681.218-.524.449-1.249.514-1.61.064-.361.318-.866.562-1.123 1.383-1.451 1.662-1.697 2.176-1.918.31-.133.785-.406 1.055-.606.728-.539 18.039-.942 18.975-.44Zm28.708.568c1.168.582 3.448 2.569 3.448 3.006 0 .104.144.344.319.533.176.189.401.634.5.99.267.962.25 18.595-.019 18.863-.253.253-4.18.276-4.644.028-.312-.167-.323-.439-.323-8.598v-8.426l-.906-.943-.907-.944-5.585-.083c-3.386-.051-5.651-.149-5.752-.25-.173-.174-.29-4.365-.127-4.529.306-.306 1.808-.373 6.996-.312l5.802.068 1.198.597Z" clip-rule="evenodd"/>
    <path fill="#A7AFAE" fill-rule="evenodd" d="M26.526 17.929c-.856.125-2.031.417-2.611.649-.581.232-1.134.422-1.23.422-.194 0-2.275 1.018-3.685 1.804-1.263.704-5.333 4.716-5.333 5.258 0 .086-.174.389-.386.672a5.7 5.7 0 0 0-.598 1.046 5.868 5.868 0 0 1-.603 1.058c-.214.29-.441.832-.504 1.203-.062.372-.311 1.208-.551 1.859-.63 1.702-.682 9.528-.075 11.183.202.55.449 1.375.55 1.834.101.458.352 1.095.559 1.416.208.321.482.846.611 1.167.129.321.462.894.741 1.273.278.38.834 1.15 1.235 1.712.401.561.964 1.208 1.25 1.436.286.228.671.557.854.732 1.615 1.54 4.684 3.299 6.383 3.66.486.103 1.102.3 1.37.438 1.513.783 1.763.795 18.914.865l16.166.067 1.192.44c4.691 1.732 6.038 8.718 2.428 12.589-.707.758-1.278 1.083-2.536 1.442l-1.417.405-23.667.095c-24.973.101-24.17.074-24.579.839-.197.367-.237 10.65-.043 10.94.375.562.616.567 24.986.56 25.745-.007 24.668.025 27.886-.826 2.164-.573 5.265-2.171 6.936-3.575 1.842-1.547 2.863-2.691 3.58-4.009.2-.366.54-.878.757-1.137.217-.26.394-.568.394-.686 0-.118.153-.409.339-.646.187-.238.488-1.116.673-1.962.184-.842.41-1.673.503-1.847.811-1.514.804-9.108-.009-10.628-.081-.15-.294-.846-.473-1.546-.179-.7-.475-1.485-.658-1.744-.182-.258-.387-.658-.454-.887-.728-2.464-4.788-6.37-8.481-8.159-4.5-2.18-4.426-2.174-23.147-2.174H29.337l-1.677-.486c-1.138-.33-1.816-.625-2.108-.917-.237-.237-.488-.431-.558-.431-.07 0-.283-.243-.472-.541-.19-.298-.497-.729-.683-.959-.222-.274-.45-1.042-.669-2.25-.82-4.531.482-7.513 3.937-9.015L28.413 30h21.108c20.531 0 21.12-.009 21.502-.318l.394-.319.048-5.455c.048-5.434.047-5.457-.321-5.849l-.369-.392-21.346.018c-17.055.014-21.659.063-22.903.244ZM70.8 18.2c.247.247.29 11.058.045 11.209-.085.053-9.779.114-21.542.135l-21.386.039-1.167.636c-1.043.569-1.887 1.262-3.043 2.499-1.712 1.832-1.648 7.935.103 9.845 1.26 1.375 2.133 2.087 2.687 2.191.322.06.924.272 1.336.469.748.359.791.361 17.167.461 16.137.099 17.812.158 18.417.647.091.074.557.25 1.035.391a8.64 8.64 0 0 1 1.598.684c.401.235.839.427.972.427.134 0 .737.324 1.34.72 4.622 3.036 6.898 6.233 8.271 11.613.742 2.911.884 7.023.304 8.834a38.031 38.031 0 0 0-.624 2.333c-.182.779-.514 1.806-.738 2.282-.225.475-.408.935-.408 1.021 0 .086-.119.255-.263.375-.145.12-.448.582-.673 1.026-.225.444-.538.946-.695 1.114-.157.169-.656.766-1.109 1.328-.453.561-.877 1.021-.944 1.021-.067 0-.296.146-.511.324-1.765 1.471-1.908 1.563-4.227 2.758-.951.49-2.164.979-2.695 1.087-.532.108-1.642.358-2.467.555l-1.5.359H35.952c-21.268 0-24.15-.029-24.289-.25-.323-.511-.203-10.682.129-10.934.239-.182 4.519-.223 23.791-.231 22.67-.008 23.525-.02 24.193-.323a9.182 9.182 0 0 1 1.584-.501c.89-.185 1.47-.623 2.845-2.145 2.232-2.472 1.833-8.388-.726-10.782a65.374 65.374 0 0 1-.628-.606c-.246-.241-.97-.691-1.608-1l-1.16-.561-16.666-.083-16.667-.084-1.25-.444a28.891 28.891 0 0 0-2-.635 11.372 11.372 0 0 1-1.63-.597c-.483-.224-.973-.407-1.087-.407-.169 0-1.388-.814-2.204-1.472a9.618 9.618 0 0 0-.667-.447c-.853-.533-2.291-1.917-2.854-2.748a63.331 63.331 0 0 0-1.068-1.5c-.931-1.27-2.097-3.75-2.233-4.75-.062-.458-.277-1.133-.477-1.5-.564-1.035-.559-8.747.008-9.962.203-.438.453-1.271.554-1.853.102-.581.342-1.31.534-1.621.324-.522.517-.867 1.407-2.505.86-1.583 3.99-4.755 5.276-5.346a6.03 6.03 0 0 0 1.137-.712c.273-.23.605-.417.739-.417s.598-.18 1.032-.4a9.124 9.124 0 0 1 1.536-.591 12.512 12.512 0 0 0 1.58-.559l.834-.367 22.166-.086c12.192-.048 22.246-.104 22.342-.125.096-.022.265.051.375.161Zm24.247 15.713c-.732.318-.73.298-.677 6.319l.047 5.316.47.351c.467.349.563.352 14.083.434l13.613.084.997.375c.614.232 1.146.568 1.387.875.215.275.487.5.604.5.48 0 .596 2.229.595 11.448-.002 11.562.062 11.206-2.273 12.718l-.643.417h-25l-.375-.375c-.206-.206-.475-.375-.597-.375-.96 0-2.364-2.796-2.093-4.167.299-1.507.761-2.709 1.117-2.899a2.12 2.12 0 0 0 .613-.548c.453-.647 1.725-.718 13.099-.736 11.446-.018 11.369-.013 11.864-.676.501-.672.498-10.948-.004-11.621-.482-.646-.479-.646-11.291-.658-11.161-.013-13.989.097-15.5.606-.55.185-1.279.384-1.62.441a2.748 2.748 0 0 0-1.107.515c-.268.225-.573.41-.678.41-.297 0-1.511.656-1.511.816 0 .079-.231.239-.513.356-.282.117-.628.388-.769.603-.141.215-.333.391-.426.391-.24 0-1.783 1.543-1.788 1.788-.002.113-.189.326-.415.473-.225.148-.455.413-.511.588-.056.176-.285.538-.509.804-.224.266-.517.795-.651 1.176-.135.381-.387.875-.562 1.097-.175.222-.411.911-.526 1.531-.114.62-.273 1.254-.354 1.409-.777 1.51-.844 8.195-.093 9.365.125.194.326.825.446 1.403.121.578.358 1.226.527 1.441.169.215.455.736.636 1.158.181.422.406.767.5.767.093 0 .275.244.403.542.425.99 3.628 3.951 4.927 4.556.315.146.803.436 1.084.645.281.208.862.463 1.292.568.431.104 1.035.339 1.344.521.978.577 3.147.663 16.708.663 13.853 0 15.666-.078 16.913-.723.414-.214.978-.443 1.253-.509.275-.066.688-.29.917-.498a3.826 3.826 0 0 1 1-.603c.596-.229.731-.332 1.952-1.494.386-.367.778-.668.872-.668.093 0 .213-.171.265-.381a.92.92 0 0 1 .448-.541c.194-.089.434-.311.533-.494.099-.184.274-.394.39-.468.115-.073.369-.448.564-.833.195-.385.532-.911.749-1.17.216-.26.394-.629.394-.821 0-.192.219-.805.486-1.362.268-.557.571-1.571.673-2.254.103-.682.254-1.321.336-1.42.668-.805.719-21.612.056-23.506-.192-.55-.432-1.45-.533-2-.102-.55-.329-1.196-.506-1.435-.177-.24-.374-.714-.438-1.054-.064-.34-.283-.819-.487-1.064-.204-.246-.56-.747-.79-1.113-.355-.567-1.404-1.679-3.297-3.5a3.876 3.876 0 0 0-1.004-.645c-.322-.134-.722-.394-.887-.577a1.675 1.675 0 0 0-.701-.432c-.22-.055-.66-.277-.979-.494-.361-.245-1.029-.46-1.771-.57-.655-.097-1.321-.295-1.48-.439-.56-.506-2.744-.583-16.512-.582-11.407.001-13.841.041-14.286.235Zm53.476.146-.368.392.05 18.983c.045 17.156.076 19.055.325 19.733.152.412.462 1.262.689 1.889.227.626.565 1.245.751 1.375.185.13.384.449.441.708.292 1.331 4.455 5.5 5.886 5.895.339.094.822.343 1.072.554.251.211.702.436 1.002.5.3.064.922.293 1.382.508 1.399.655 3.091.735 15.705.736 11.654.001 11.882-.005 12.209-.332.32-.32.333-.556.333-6.096v-5.763l-.487-.487c-.268-.268-.662-.487-.875-.486-8.477.025-22.525-.148-22.989-.282-.331-.095-.912-.475-1.291-.843-1.005-.975-1.018-1.245-1.022-20.096-.002-10.309-.063-16.414-.166-16.607-.321-.601-1.051-.673-6.749-.673h-5.53l-.368.392Zm44.055-.237a1.637 1.637 0 0 0-.538.38c-.152.183-.21 7.002-.245 28.901l-.045 28.661-.537.678a8.087 8.087 0 0 1-1.167 1.16l-.629.481-11.787.084c-11.65.082-11.792.087-12.133.429-.544.544-.549 11.926-.005 12.47.348.348.425.351 11.388.398 12.412.053 14.665-.047 15.898-.703.441-.235.962-.428 1.156-.428.194 0 .616-.178.937-.396a5.753 5.753 0 0 1 1.178-.592c.327-.108.873-.418 1.213-.688.339-.269.714-.49.832-.49s.363-.188.543-.417c.18-.229.392-.417.47-.417.172 0 1.726-1.562 1.726-1.735 0-.066.244-.366.542-.666.845-.851 1.442-1.759 1.556-2.365.057-.305.213-.646.347-.757.371-.308.663-.979.789-1.81a6.216 6.216 0 0 1 .482-1.5l.368-.75.045-29.602c.044-29.042.039-29.61-.277-30l-.322-.398-5.723-.034c-3.148-.019-5.876.029-6.062.106Zm32.232.163-.393.319v11.382l.416.32c.403.309.857.32 13.667.323 12.953.003 13.276.011 14.426.352 1.266.375 2.574 1.364 2.574 1.946 0 .168.065.378.145.465.631.691.688 1.578.688 10.618v8.817l-.508 1.195c-.28.657-.571 1.345-.648 1.528-.076.183-.699.615-1.384.958l-1.245.625h-23.817l-1.082-.544c-2.244-1.129-2.745-2.177-2.481-5.19l.115-1.318.983-.885c1.402-1.264 1.015-1.229 13.628-1.229h11.044l.489-.511.49-.511V57.19c0-6.376.031-6.236-1.446-6.414-3.144-.377-24.35-.032-25.174.411-.209.112-.862.305-1.451.429-.595.124-1.404.445-1.82.721-.413.273-.878.496-1.034.496-.157 0-.386.123-.511.273-.124.15-.527.462-.895.693-1.481.929-4.419 4.011-4.419 4.635 0 .122-.222.474-.493.783-.272.309-.571.905-.665 1.325-.094.421-.323 1.022-.508 1.336-.2.338-.427 1.211-.556 2.139-.12.861-.326 1.754-.457 1.983-.35.613-.325 3.986.038 5.083.152.459.392 1.461.533 2.228.142.767.367 1.517.499 1.667.133.149.315.542.405.871.164.606 1.065 2.092 1.677 2.768.183.202.382.522.442.711.059.188.318.451.575.584.257.133.509.4.559.594.051.194.239.39.417.437.179.047.487.304.684.571.198.267.457.486.576.486.118 0 .39.185.602.412.213.226.658.498.988.603.33.106.788.362 1.017.571.229.208.679.433 1 .499.321.066.984.307 1.473.536 1.349.632 2.935.698 16.944.699 13.932.002 15.463-.063 16.696-.707a10.22 10.22 0 0 1 1.524-.63c.396-.116.809-.336.917-.488.108-.153.475-.369.815-.481.821-.269 4.169-3.477 4.636-4.442.189-.39.445-.748.569-.795.123-.048.348-.458.499-.912.151-.454.411-.95.579-1.102.17-.153.395-.735.507-1.311.111-.569.305-1.298.43-1.619.625-1.598.661-2.331.661-13.583 0-11.318-.01-11.507-.665-13.25-.121-.321-.309-1.022-.418-1.557-.109-.536-.325-1.101-.481-1.257-.156-.156-.386-.543-.511-.86-.125-.317-.441-.805-.701-1.084-.261-.279-.474-.582-.474-.674 0-.234-1.384-1.735-1.6-1.735-.099 0-.264-.184-.366-.408-.102-.225-.414-.527-.693-.671-.279-.145-.508-.339-.508-.433 0-.094-.257-.279-.572-.41a4.213 4.213 0 0 1-1.028-.663c-.252-.232-.65-.468-.887-.524a2.104 2.104 0 0 1-.778-.417c-.206-.187-.915-.422-1.739-.578-.765-.144-1.546-.363-1.735-.486-1.06-.69-29.951-.932-30.784-.258Zm67.837-.14c-.515.076-1.228.286-1.583.468-.356.182-1.081.382-1.61.445-.645.077-1.195.272-1.667.592-.387.263-.801.479-.92.48-.118.002-.393.181-.611.398-.217.218-.598.447-.847.509-.248.062-.679.341-.958.619-.278.279-.688.576-.911.661-.223.084-.446.309-.496.498-.049.189-.274.414-.5.5-.225.086-.446.295-.491.466-.044.171-.3.472-.567.67-.267.197-.486.452-.486.566 0 .114-.231.488-.514.831-.283.343-.59.904-.683 1.246-.092.342-.308.774-.479.959-.17.185-.419.785-.553 1.334-.133.548-.399 1.59-.59 2.315-.535 2.03-.549 37.064-.014 37.598.438.438 11.838.527 12.426.097.316-.231.326-.658.407-17.907l.083-17.671.362-.337c.199-.186.411-.491.471-.679.059-.188.413-.509.785-.714.373-.205.836-.465 1.03-.578.272-.159 3.565-.207 14.44-.209 12.752-.002 14.125-.028 14.476-.274.791-.553.853-1.02.853-6.386 0-5.466-.092-6.102-.934-6.486-.493-.225-28.394-.235-29.919-.011Zm43.264-.02c-.813.33-.824.402-.882 5.885-.059 5.578-.008 5.987.789 6.346.311.14 4.196.221 13.932.29 10.944.078 13.642.141 14.25.331.998.313 2.6 1.918 2.786 2.791.267 1.256.158 20.068-.119 20.55-.63 1.097-1.192 1.815-1.419 1.815-.136 0-.393.145-.571.323-.177.177-.608.402-.958.499-.859.238-24.041.247-24.583.009-1.317-.578-2.075-1.167-2.497-1.937-.244-.446-.537-.913-.649-1.038-.714-.791.079-3.756 1.354-5.061.924-.946 1.139-.961 13.191-.961h10.852l.722-.423c.941-.552.913-.344.857-6.384l-.049-5.223-.456-.391c-.695-.598-1.097-.614-13.391-.538-10.326.064-11.579.1-12.403.361-.505.159-1.442.405-2.084.545-.739.162-1.322.401-1.592.654-.234.219-.519.399-.632.399-.325 0-1.526.656-1.526.833 0 .088-.188.208-.418.265-.23.058-.573.322-.762.587-.188.265-.422.481-.518.481-.097 0-.545.394-.995.875-.45.482-.995 1.063-1.212 1.292-.217.229-.445.585-.506.792-.061.206-.18.375-.263.375-.179 0-.826 1.215-.826 1.551 0 .126-.141.358-.314.515-.172.156-.404.636-.515 1.067-.11.431-.382 1.16-.603 1.62-.952 1.981-.954 9.056-.004 10.841.24.451.438.97.439 1.154.002.184.185.635.408 1.002.222.366.517.909.654 1.206.449.971 2.129 2.978 3.454 4.127 1.654 1.435 1.863 1.584 2.469 1.747.344.092.763.319.93.504.167.185.681.448 1.141.584.461.137 1.142.396 1.514.576 1.221.59 3.225.67 16.761.67 13.945 0 15.498-.069 16.8-.741.43-.223 1.008-.456 1.283-.519.275-.063.688-.283.917-.49.229-.206.708-.478 1.065-.603.356-.125.759-.397.894-.603.135-.206.347-.375.472-.375.124 0 .392-.225.595-.5.203-.275.466-.5.585-.5.118 0 .347-.206.509-.458.162-.252.464-.595.67-.762.207-.167.376-.411.376-.541 0-.13.223-.435.495-.677.272-.242.581-.702.686-1.021.105-.319.329-.717.497-.885.167-.168.39-.62.493-1.005.104-.385.343-.908.531-1.163.25-.337.385-.887.497-2.018.085-.854.263-1.983.395-2.509.283-1.128.358-19.3.084-20.257-.086-.299-.243-1.423-.349-2.499-.184-1.873-.486-3.038-.786-3.038-.077 0-.23-.337-.341-.749-.11-.412-.349-.898-.53-1.08-.182-.182-.441-.595-.576-.917-.135-.323-.317-.588-.405-.588-.087 0-.351-.327-.585-.726-.234-.4-.61-.848-.836-.996-.226-.148-.458-.417-.516-.598-.057-.181-.231-.37-.387-.419-.156-.05-.583-.352-.95-.672-.367-.32-.761-.584-.877-.585-.115-.002-.445-.229-.733-.504-.287-.275-.614-.5-.725-.5-.111 0-.487-.193-.835-.429-.379-.258-1.136-.526-1.884-.67-.688-.131-1.343-.315-1.454-.407-.727-.603-29.429-1.07-30.831-.502Zm-210.26.822c4.502 1.133 7.318 2.967 9.849 6.413.321.437.744.997.94 1.245.197.247.471.824.61 1.281.139.457.404 1.168.59 1.581 1.488 3.304 1.457 26.296-.038 28.578-.149.227-.376.863-.504 1.414-.128.55-.395 1.208-.592 1.462-.197.254-.682.969-1.077 1.588-.828 1.296-2.749 3.202-4.128 4.094-1.971 1.274-2.43 1.502-4.134 2.05l-1.75.564L111 84.915c-12.939-.002-14.502-.03-15.25-.277a51.336 51.336 0 0 0-1.833-.555c-2.848-.8-6.477-3.576-8.28-6.333-2.195-3.357-3.333-8.506-2.542-11.507.144-.546.368-1.694.498-2.551.13-.856.384-1.831.564-2.166.179-.335.489-1.003.688-1.484.2-.482.416-.875.482-.875s.213-.207.327-.459c.43-.95 2.247-3.092 3.233-3.81 4.892-3.562 4.863-3.557 20.471-3.579 11.859-.016 11.938-.012 12.305.674.378.707.216 10.247-.18 10.606-.336.304-.836.321-11.542.403-10.94.083-11.211.093-12.098.442-4.485 1.765-4.048 8.562.615 9.563 1.31.28 24.847.138 25.375-.154 2.844-1.57 2.75-1.114 2.75-13.353 0-12.073.093-11.633-2.75-13.108l-.916-.475-13.767-.084c-11.331-.068-13.814-.123-14.041-.312-.294-.243-.412-10.031-.13-10.747.307-.781.075-.77 14.688-.728l13.75.039 2.234.562Zm34.802-.266c.28.28.302 1.272.388 17.25.112 20.94-.07 19.73 3.112 20.717l1.297.402 10.583.035c5.821.02 10.712.038 10.869.042.157.003.438.17.625.371.443.476.537 10.802.103 11.395-.231.315-.554.324-12.625.324h-12.388l-1.917-.568c-4.323-1.282-8.133-4.182-9.809-7.468a14.573 14.573 0 0 0-.753-1.282c-.219-.323-.449-.855-.51-1.181-.061-.327-.276-1.061-.476-1.631-.365-1.036-.365-1.049-.45-19.174-.09-19.165-.087-19.252.668-19.468 1.001-.287 10.968-.079 11.283.236Zm43.353-.199c.898.313.872-.636.819 29.683l-.05 28.218-.445 2.084c-.537 2.514-1.888 5.412-3.12 6.694-2.673 2.781-2.766 2.857-4.927 4.02-1.25.673-2.94 1.33-4.485 1.744l-1.681.451-11.334.057c-12.11.061-12.645.04-12.932-.495-.321-.6-.25-11.046.079-11.547l.264-.404 11.461-.062c12.826-.071 12.325-.024 13.565-1.269 1.207-1.212 1.147.378 1.148-30.37.001-29.014-.014-28.498.795-28.794.641-.234 10.174-.243 10.843-.01Zm51.611.436c2.632.64 5.419 1.928 6.718 3.104.17.153.379.278.466.278.087 0 .536.431.997.958 2.506 2.863 3.631 4.818 4.007 6.959.129.733.364 1.67.523 2.083.432 1.123.442 21.292.01 22.583-.153.459-.394 1.509-.536 2.334-.577 3.365-3.53 7.621-6.557 9.453a70.64 70.64 0 0 0-1.506.938c-.331.215-1.394.664-2.362.998l-1.76.607-14.417.002c-10.691.001-14.589-.05-15.083-.197-.367-.11-1.321-.391-2.12-.626-.799-.235-1.728-.615-2.065-.843-.336-.229-.682-.416-.767-.416-.689 0-4.219-3.209-5.225-4.75-.359-.55-.82-1.209-1.025-1.466-.205-.256-.453-.781-.551-1.166a13.625 13.625 0 0 0-.573-1.618c-.988-2.298-.955-8.718.057-11.002.183-.414.415-1.12.516-1.569.413-1.844 4.033-6.342 5.85-7.269.347-.177.673-.391.726-.476.052-.085.789-.492 1.636-.904 2.489-1.21 3.418-1.28 17.175-1.28h11.454l.33.542c.55.902.508 10.235-.049 10.758-.381.358-.387.358-11.542.404l-11.161.046-1.022.453c-2.015.891-2.926 2.347-2.945 4.705-.018 2.394 1.444 4.287 3.683 4.767 1.24.266 24.826.139 25.368-.137 1.031-.524 1.685-1.179 2.285-2.288l.631-1.166V49.583l-.612-1c-.722-1.18-1.101-1.555-2.221-2.192l-.833-.474-13.828-.048c-12.616-.044-13.854-.073-14.133-.326-.48-.434-.374-10.656.116-11.197l.321-.355 13.929.05 13.928.049 2.167.528Zm67.009-.382c.349.255.664 10.136.363 11.371-.23.94.451.896-14.643.938-13.877.038-14.073.043-14.813.387-1.071.498-1.749 1.125-2.195 2.03l-.388.788-.043 17.333-.042 17.334-.351.291c-.318.265-.853.292-5.76.292-5.348 0-5.916-.051-6.26-.567-.192-.288-.147-34.405.047-35.183.091-.367.276-1.371.412-2.231.167-1.066.432-1.952.83-2.779.321-.668.584-1.268.584-1.335 0-1.019 4.094-5.286 5.727-5.968.311-.13.62-.324.686-.432.157-.253 2.389-1.271 3.112-1.419.307-.063 1.308-.293 2.225-.511.916-.218 1.854-.427 2.083-.463 1.355-.216 28.121-.099 28.426.124Zm41.491-.078c3.784.815 4.659 1.056 5.759 1.587 1.566.756 2.842 1.498 3.067 1.784.095.122.442.409.769.638.54.377 1.484 1.391 2.681 2.877.53.658 1.845 3.176 2.315 4.433 1.035 2.766.879 26.124-.188 28.215-.176.346-.32.725-.32.844 0 .36-1.39 3.035-1.878 3.615-.25.297-.455.609-.455.691 0 .44-3.381 3.423-4.538 4.005-.392.197-.827.459-.968.582-.354.311-3.127 1.198-4.377 1.401-1.218.197-26.716.21-28.117.013-7.455-1.045-13.363-7.192-14.026-14.593-.583-6.515 2.394-13.208 7.256-16.314 4.049-2.587 4.002-2.581 19.201-2.611l11.477-.022.462.518.463.518v9.987l-.451.295c-.417.273-1.291.302-11.625.379l-11.174.083-1.165.584c-3.717 1.86-3.571 7.205.248 9.123.542.272 1.498.293 13.257.293h12.673l.544-.416c2.735-2.096 2.61-1.464 2.61-13.167 0-9.214-.008-9.437-.357-10.357-.421-1.112-1.497-2.252-2.675-2.831l-.802-.395-13.691-.084c-13.166-.08-13.704-.095-14.041-.4-.341-.309-.351-.451-.35-5.084.001-5.03.095-5.85.708-6.146.459-.221 26.691-.264 27.708-.045ZM105.108 92.835l-.441.524v17.426c0 20.136-.148 18.423 1.605 18.642 1.007.125 4.153.014 4.57-.162.855-.36.825.313.825-18.49V93.352l-.402-.468-.402-.467-2.657-.053-2.658-.053-.44.524Zm5.892.498c.329.329.333.556.333 17.558v17.224l-.35.318c-.443.401-5.296.487-5.683.1-.398-.397-.476-34.644-.08-35.147.44-.558 5.231-.602 5.78-.053Zm-99.64 1.665c-.927.221-.943.28-.943 3.339 0 3.965-.792 3.557 7.129 3.672 3.504.05 6.388.107 6.409.125.022.018.059 5.989.084 13.269l.044 13.237.404.43c.483.513 4.157.656 5.227.203 1.298-.55 1.193.608 1.286-14.082l.083-13.108 6.1-.083c6.639-.091 6.523-.073 6.782-1.06.259-.986-.007-5.388-.346-5.726-.322-.321-30.96-.526-32.259-.216Zm32.026.635c.481.531.428 4.938-.066 5.464l-.378.403h-5.835c-5.762 0-5.84.005-6.221.362l-.386.363v25.717l-.43.404c-.582.547-4.865.725-5.418.224-.309-.279-.319-.693-.319-13.187 0-11.237-.032-12.963-.254-13.391l-.254-.492h-5.888c-7.715 0-7.27.203-7.27-3.309 0-2.365.098-2.651.974-2.83 1.426-.292 31.468-.035 31.745.272Zm8.197 7.562c-.275.091-1.07.264-1.767.385-1.681.29-3.79 1.784-4.475 3.17-.182.367-.481.854-.666 1.083-.207.256-.398.856-.495 1.553-.087.625-.257 1.256-.377 1.401-.423.509-.404 10.361.021 11.196.189.369.343.842.344 1.052.001.691.341 1.624.751 2.067.222.239.452.588.511.775.147.46 1.072 1.363 1.758 1.715.309.159.763.456 1.009.661.285.238.792.416 1.404.492.527.066 1.148.244 1.38.396.451.296 11.053.43 12.041.152.813-.228 1.009-.996.948-3.713-.073-3.302.577-2.978-6.184-3.082-5.547-.085-5.85-.118-6.614-.704-.774-.594-.839-1.028-.839-5.621 0-6.698-.169-6.561 8.008-6.477 4.941.051 5.286.074 5.73.387.26.184.631.424.823.535.617.355.773 2.549.183 2.549-.121 0-.382.206-.58.458l-.36.458-5.833.084-5.834.083-.318.393c-.817 1.01-.347 5.729.614 6.167.82.374 11.342.247 12.211-.147.399-.181.896-.33 1.104-.33.585 0 1.786-.473 2.126-.837.168-.181.387-.329.487-.329.246 0 1.806-1.626 1.806-1.882 0-.113.138-.291.308-.397.169-.106.406-.555.527-.998.12-.444.376-1.032.567-1.307.524-.753.52-4.549-.006-5.416-.194-.321-.401-.789-.46-1.039-.059-.25-.321-.7-.583-1-.261-.3-.527-.713-.592-.92-.064-.206-.187-.375-.273-.375-.086 0-.325-.197-.531-.438a2.942 2.942 0 0 0-.915-.669c-.298-.127-.542-.296-.542-.376 0-.26-1.06-.651-2.083-.768-.55-.063-1.322-.22-1.714-.348-.863-.283-11.785-.316-12.62-.039Zm31.417-.02c-.321.076-1.219.258-1.997.405-.823.156-1.554.396-1.75.575-.185.168-.607.446-.938.617-1.315.68-2.969 3.378-3.319 5.415-.127.739-.166 3.023-.12 6.916.069 5.778.16 6.742.685 7.268.119.118.322.412.452.652.508.938 1.723 2.245 2.421 2.605.403.208.733.443.733.522 0 .208.791.485 1.75.613.458.061.972.233 1.142.382.405.356 16.635.522 17.463.179 1.153-.477 1.311-.918 1.311-3.639v-2.456l-.458-.427c-.87-.812-.755-.801-9.156-.815-5.973-.009-8.115-.065-8.552-.223l-.584-.21v-10.77l.667-.266c.573-.228 1.798-.271 8.715-.302 10.094-.045 9.368.239 9.368-3.673 0-3.761.57-3.548-9.436-3.524-4.298.011-8.076.081-8.397.156Zm31.389-.067c-1.076.233-1.222.648-1.222 3.48v2.604l.487.487c.296.297.672.493.958.5.259.007 2.384.008 4.721.003 2.673-.006 4.683.067 5.417.196l1.167.205.2.75c.143.537.198 3.023.191 8.75-.012 10.091-.316 9.334 3.746 9.334h2.472l.57-.623.571-.622v-8.675c0-7.009-.045-8.78-.231-9.226-.127-.304-.317-.953-.422-1.444-.267-1.246-1.786-3.231-3.12-4.077-.289-.183-.716-.47-.949-.637-.233-.167-.972-.383-1.642-.48-.671-.097-1.325-.26-1.453-.363-.234-.186-10.666-.333-11.461-.162Zm-48.875.724c4.422.64 7.42 5.959 5.93 10.52-1.656 5.066-3.472 5.93-12.611 5.998-6.923.051-6.5.257-6.5-3.169 0-2.954-.444-2.736 5.494-2.694 5.907.041 6.458-.017 7.221-.758 1.121-1.088 1.041-2.725-.178-3.655l-.766-.585-6.3.047-6.299.047-.711.711-.711.711-.057 4.122c-.081 5.84-.018 6.356.862 7.064l.695.559 5.724.083 5.723.084.318.393c.476.588.476 4.459 0 5.047l-.319.393-6.056-.002c-6.358-.001-7.711-.119-8.379-.729a4.83 4.83 0 0 0-.883-.586c-1.499-.757-3.037-3.022-3.36-4.947-.543-3.23-.128-13.217.593-14.289.165-.246.422-.71.57-1.03.572-1.24 3.063-3.073 4.499-3.311 1.223-.203 14.126-.223 15.501-.024Zm34.38.18c.435.342.439.365.439 2.569v2.223l-.512.431-.513.432-8.029.011-8.029.011-.745.541c-1 .726-1.033.943-.972 6.437.073 6.611-.932 6 9.866 6h8.056l.439.439c.429.43.439.488.439 2.596v2.157l-.487.487-.487.487-7.971-.001c-10.449-.001-12.203-.304-13.781-2.374a15.487 15.487 0 0 0-.899-1.041c-.298-.315-.542-.669-.542-.786-.001-.118-.119-.439-.263-.714-.849-1.624-1.136-12.048-.389-14.084.186-.504.442-1.236.571-1.627.603-1.832 3.233-4.033 5.22-4.369 2.026-.342 18.125-.19 18.589.175Zm26.826-.185c2.73.448 5.628 3.178 6.099 5.745.116.632.181 4.166.181 9.78v8.79l-.439.346c-.638.502-4.639.522-5.251.027l-.393-.319-.084-8.419c-.109-11.041.65-9.987-7.274-10.11-6.637-.104-6.059.182-6.059-2.989 0-1.785.055-2.35.259-2.641l.26-.37 5.865.001c3.227 0 6.302.072 6.836.159Z" clip-rule="evenodd"/>
  </g>
  
</svg>
