<svg id="svg" version="1.1" xmlns="http://www.w3.org/2000/svg" xmlns:xlink="http://www.w3.org/1999/xlink" width="400" height="98.42738205365403" viewBox="0, 0, 400,98.42738205365403"><g id="svgg"><path id="path0" d="M8.208 0.120 C 7.910 0.157,7.667 0.258,7.667 0.344 C 7.667 0.430,7.439 0.500,7.161 0.500 C 6.866 0.500,6.616 0.604,6.560 0.750 C 6.508 0.887,6.337 1.000,6.180 1.000 C 6.024 1.000,5.735 1.150,5.538 1.333 C 5.342 1.517,5.100 1.667,5.001 1.667 C 4.741 1.667,1.667 4.778,1.667 5.040 C 1.667 5.161,1.517 5.368,1.333 5.500 C 1.150 5.632,1.000 5.911,1.000 6.120 C 1.000 6.347,0.899 6.500,0.750 6.500 C 0.577 6.500,0.500 6.674,0.500 7.069 C 0.500 7.383,0.406 7.670,0.292 7.708 C -0.015 7.810,-0.015 90.190,0.292 90.292 C 0.406 90.330,0.500 90.582,0.500 90.852 C 0.500 91.135,0.606 91.384,0.750 91.440 C 0.887 91.492,1.000 91.678,1.000 91.851 C 1.000 92.025,1.075 92.167,1.167 92.167 C 1.258 92.167,1.333 92.279,1.333 92.417 C 1.333 92.554,1.408 92.667,1.500 92.667 C 1.592 92.667,1.667 92.783,1.667 92.924 C 1.667 93.214,2.392 94.000,2.659 94.000 C 2.755 94.000,2.833 94.077,2.833 94.172 C 2.833 94.396,3.937 95.500,4.161 95.500 C 4.256 95.500,4.333 95.580,4.333 95.679 C 4.333 95.913,4.759 96.333,4.995 96.333 C 5.097 96.333,5.342 96.483,5.538 96.667 C 5.735 96.850,6.032 97.000,6.198 97.000 C 6.364 97.000,6.500 97.075,6.500 97.167 C 6.500 97.258,6.763 97.333,7.083 97.333 C 7.491 97.333,7.667 97.409,7.667 97.583 C 7.667 97.750,7.833 97.833,8.167 97.833 C 8.442 97.833,8.667 97.908,8.667 98.000 C 8.667 98.111,72.556 98.167,200.000 98.167 C 327.444 98.167,391.333 98.111,391.333 98.000 C 391.333 97.908,391.558 97.833,391.833 97.833 C 392.167 97.833,392.333 97.750,392.333 97.583 C 392.333 97.409,392.509 97.333,392.917 97.333 C 393.238 97.333,393.500 97.258,393.500 97.167 C 393.500 97.075,393.650 97.000,393.833 97.000 C 394.017 97.000,394.167 96.925,394.167 96.833 C 394.167 96.742,394.279 96.667,394.417 96.667 C 394.554 96.667,394.667 96.592,394.667 96.500 C 394.667 96.408,394.785 96.333,394.929 96.333 C 395.228 96.333,395.667 95.944,395.667 95.679 C 395.667 95.580,395.744 95.500,395.839 95.500 C 396.063 95.500,397.167 94.396,397.167 94.172 C 397.167 94.078,397.245 94.000,397.341 94.000 C 397.608 94.000,398.333 93.214,398.333 92.924 C 398.333 92.783,398.408 92.667,398.500 92.667 C 398.592 92.667,398.667 92.554,398.667 92.417 C 398.667 92.279,398.742 92.167,398.833 92.167 C 398.925 92.167,399.000 92.025,399.000 91.851 C 399.000 91.678,399.112 91.492,399.250 91.440 C 399.394 91.384,399.500 91.135,399.500 90.852 C 399.500 90.582,399.594 90.330,399.708 90.292 C 399.874 90.236,399.917 81.830,399.917 49.000 C 399.917 16.170,399.874 7.764,399.708 7.708 C 399.594 7.670,399.500 7.418,399.500 7.148 C 399.500 6.865,399.394 6.616,399.250 6.560 C 399.113 6.508,399.000 6.337,399.000 6.180 C 399.000 6.024,398.850 5.735,398.667 5.538 C 398.483 5.342,398.333 5.100,398.333 5.001 C 398.333 4.741,395.222 1.667,394.960 1.667 C 394.839 1.667,394.632 1.517,394.500 1.333 C 394.368 1.150,394.089 1.000,393.880 1.000 C 393.653 1.000,393.500 0.899,393.500 0.750 C 393.500 0.577,393.326 0.500,392.931 0.500 C 392.617 0.500,392.330 0.406,392.292 0.292 C 392.226 0.094,9.791 -0.077,8.208 0.120 M158.500 49.167 L 158.500 93.833 84.561 93.833 C 30.902 93.833,10.434 93.783,9.936 93.648 C 7.395 92.963,5.552 91.105,4.679 88.350 C 4.421 87.535,4.427 10.893,4.685 9.936 C 5.358 7.440,7.212 5.582,9.917 4.691 C 10.243 4.584,36.172 4.522,84.458 4.513 L 158.500 4.500 158.500 49.167 M232.667 49.167 L 232.667 93.833 197.833 93.833 L 163.000 93.833 163.000 49.167 L 163.000 4.500 197.833 4.500 L 232.667 4.500 232.667 49.167 M390.064 4.685 C 392.605 5.370,394.448 7.229,395.321 9.983 C 395.579 10.798,395.573 87.440,395.315 88.397 C 394.635 90.920,392.752 92.788,390.017 93.654 C 389.616 93.781,367.206 93.833,313.308 93.833 L 237.167 93.833 237.167 49.167 L 237.167 4.500 313.272 4.500 C 368.519 4.500,389.566 4.551,390.064 4.685 M199.262 13.570 C 198.902 14.629,198.733 14.734,197.876 14.432 C 196.691 14.014,195.902 13.963,194.834 14.237 C 193.077 14.687,192.979 15.159,194.639 15.174 C 195.079 15.178,195.670 15.319,196.000 15.500 L 196.583 15.819 195.250 15.827 C 193.183 15.840,191.499 16.445,190.124 17.670 C 189.405 18.310,189.360 18.704,190.042 18.375 C 190.826 17.997,191.626 17.803,192.875 17.689 C 194.499 17.541,194.547 17.747,193.046 18.417 C 191.155 19.261,189.114 21.576,188.571 23.496 C 188.477 23.825,188.660 23.710,189.479 22.923 C 190.975 21.486,193.133 20.077,193.411 20.356 C 193.452 20.397,192.908 21.032,192.201 21.768 C 190.857 23.169,190.471 23.805,189.672 25.937 C 189.438 26.562,189.505 27.959,189.743 27.417 C 190.245 26.273,193.128 23.000,193.633 23.000 C 193.802 23.000,193.825 23.062,193.711 23.208 C 192.485 24.775,191.681 27.432,191.673 29.948 C 191.666 31.833,191.830 32.212,192.143 31.039 C 192.257 30.613,192.465 29.998,192.606 29.674 C 192.746 29.349,192.973 28.821,193.109 28.500 C 193.523 27.528,195.064 25.167,195.285 25.167 C 195.498 25.167,195.461 25.619,195.151 26.833 C 194.954 27.603,194.966 29.725,195.172 30.667 C 195.738 33.252,196.167 34.157,196.167 32.767 C 196.167 30.402,197.580 25.500,198.263 25.500 C 198.527 25.500,198.751 27.108,198.593 27.874 C 198.442 28.601,198.442 28.838,198.591 30.558 C 198.680 31.585,198.662 32.066,198.533 32.146 C 198.398 32.230,198.399 32.693,198.538 33.877 C 198.687 35.151,198.682 35.576,198.517 35.886 C 198.355 36.188,198.348 36.503,198.486 37.253 C 198.769 38.781,198.719 39.714,198.333 40.128 C 197.745 40.760,197.901 40.833,199.833 40.833 C 201.746 40.833,201.983 40.730,201.343 40.175 C 201.016 39.891,200.914 33.043,201.230 32.533 C 201.290 32.436,201.269 32.313,201.184 32.261 C 200.961 32.123,201.046 25.721,201.274 25.493 C 201.917 24.850,203.500 30.423,203.500 33.327 C 203.500 33.962,203.839 33.261,204.155 31.973 C 204.679 29.837,204.756 28.366,204.433 26.682 C 204.285 25.911,204.197 25.248,204.237 25.207 C 204.628 24.816,206.438 27.967,207.303 30.546 C 207.873 32.244,208.000 32.138,208.000 29.969 C 208.000 27.807,207.375 25.569,206.273 23.790 C 206.002 23.354,205.830 22.948,205.890 22.888 C 206.072 22.706,208.727 25.519,209.338 26.542 C 209.975 27.606,210.167 27.722,210.166 27.042 C 210.164 25.624,208.903 23.222,207.306 21.594 C 206.683 20.959,206.206 20.405,206.247 20.364 C 206.492 20.119,208.891 21.673,210.178 22.912 C 210.992 23.696,211.187 23.820,211.090 23.496 C 210.490 21.489,208.723 19.473,206.710 18.500 C 206.046 18.179,205.503 17.838,205.502 17.742 C 205.499 17.465,207.976 17.767,209.070 18.176 C 210.285 18.630,210.437 18.467,209.543 17.670 C 208.167 16.445,206.484 15.840,204.417 15.827 L 203.083 15.819 203.667 15.500 C 204.010 15.312,204.593 15.177,205.083 15.171 C 206.325 15.157,206.510 14.947,205.640 14.536 C 204.586 14.039,203.426 13.943,202.333 14.262 C 200.841 14.698,200.821 14.692,200.406 13.667 C 199.914 12.453,199.649 12.430,199.262 13.570 M183.572 37.669 C 181.820 37.986,181.642 38.277,183.118 38.409 C 184.335 38.517,184.725 38.591,186.417 39.034 C 188.449 39.567,191.794 41.110,193.645 42.370 C 194.598 43.018,197.241 44.995,197.917 45.565 L 198.417 45.987 197.250 47.078 C 195.618 48.603,195.600 48.610,195.108 47.959 C 194.883 47.661,194.633 47.081,194.553 46.671 L 194.408 45.925 194.037 46.296 C 193.543 46.790,193.559 47.582,194.083 48.567 C 194.598 49.536,194.640 49.370,193.708 50.044 C 192.141 51.179,191.800 51.153,190.948 49.834 C 190.248 48.752,189.167 49.217,189.167 50.600 C 189.167 52.967,192.137 53.537,194.516 51.625 C 195.058 51.190,195.608 50.833,195.737 50.833 C 196.078 50.833,196.667 51.869,196.667 52.468 C 196.667 53.463,197.402 53.276,197.598 52.232 C 197.678 51.804,197.597 51.444,197.269 50.774 C 197.029 50.284,196.833 49.842,196.833 49.792 C 196.833 49.599,199.566 47.333,199.798 47.333 C 200.094 47.333,202.833 49.612,202.833 49.858 C 202.833 49.953,202.673 50.257,202.478 50.531 C 201.983 51.226,201.866 52.409,202.250 52.833 C 202.596 53.216,202.833 53.127,202.834 52.615 C 202.835 52.205,203.393 51.189,203.787 50.882 C 204.001 50.715,204.191 50.808,204.894 51.423 C 207.367 53.586,210.634 53.066,210.467 50.536 C 210.371 49.101,209.105 48.732,208.532 49.973 C 208.003 51.119,206.688 51.015,205.483 49.732 L 205.127 49.353 205.473 48.794 C 206.173 47.661,206.091 46.167,205.327 46.167 C 205.060 46.167,205.000 46.282,205.000 46.798 C 205.000 47.246,204.864 47.592,204.531 47.991 L 204.062 48.553 202.698 47.351 C 201.045 45.894,201.050 46.064,202.625 44.819 C 207.569 40.911,212.196 38.787,216.625 38.393 C 219.200 38.164,215.771 37.382,212.982 37.562 C 209.459 37.789,205.959 39.500,201.715 43.069 C 199.722 44.746,199.823 44.725,198.658 43.704 C 193.008 38.753,188.199 36.829,183.572 37.669 M185.718 55.606 C 185.590 55.939,185.857 56.398,186.220 56.469 C 186.581 56.540,186.806 55.690,186.481 55.485 C 186.125 55.259,185.833 55.306,185.718 55.606 M212.325 55.772 C 212.197 56.108,212.215 56.377,212.393 56.822 C 212.619 57.389,213.032 59.998,213.067 61.083 C 213.083 61.571,213.062 61.585,212.208 61.634 L 211.333 61.684 211.333 61.041 C 211.333 60.334,210.990 59.717,210.698 59.898 C 210.565 59.979,210.588 60.173,210.776 60.568 C 210.948 60.929,210.989 61.216,210.893 61.388 C 210.663 61.798,209.932 61.371,209.864 60.788 C 209.799 60.225,209.500 60.184,209.500 60.738 C 209.500 62.060,207.897 61.952,207.051 60.574 C 206.865 60.270,206.852 60.277,206.843 60.683 C 206.827 61.412,206.366 61.667,205.062 61.667 C 203.638 61.667,203.376 61.476,203.862 60.794 C 204.523 59.865,203.499 59.142,201.959 59.450 C 201.165 59.609,200.890 60.667,201.644 60.667 C 202.255 60.667,202.207 61.167,201.569 61.433 C 200.759 61.772,200.397 61.621,200.279 60.897 C 200.085 59.702,199.241 59.429,198.665 60.375 C 198.075 61.343,198.381 62.500,199.227 62.500 C 199.696 62.500,199.740 62.983,199.313 63.445 C 198.629 64.184,197.721 64.667,197.013 64.667 C 196.197 64.667,195.989 64.923,196.690 65.063 C 198.454 65.416,199.761 64.674,200.243 63.047 C 200.322 62.781,200.524 62.651,200.968 62.580 C 201.306 62.526,201.836 62.370,202.144 62.234 C 202.654 62.010,202.745 62.014,203.144 62.283 C 203.484 62.511,203.904 62.576,205.000 62.566 C 207.649 62.543,207.916 62.540,208.500 62.532 C 208.821 62.528,209.421 62.532,209.833 62.541 C 212.326 62.596,213.655 62.568,213.763 62.459 C 213.886 62.336,213.662 60.378,213.293 58.363 C 213.145 57.553,213.147 57.236,213.300 56.991 C 213.623 56.474,213.533 56.087,212.998 55.692 L 212.497 55.321 212.325 55.772 M184.533 56.033 C 184.241 56.325,184.288 56.631,184.655 56.827 C 185.227 57.133,185.720 56.454,185.208 56.065 C 184.844 55.789,184.781 55.786,184.533 56.033 M214.867 56.200 C 214.627 56.440,214.611 57.162,214.823 58.276 C 214.908 58.728,215.000 59.826,215.027 60.716 C 215.053 61.605,215.124 62.333,215.184 62.333 C 215.712 62.333,215.769 60.892,215.395 57.042 C 215.291 55.974,215.214 55.852,214.867 56.200 M186.140 57.948 C 186.126 58.114,186.118 58.348,186.123 58.467 C 186.128 58.586,185.823 58.879,185.445 59.118 C 184.311 59.834,183.673 60.666,184.038 60.953 C 184.453 61.281,185.162 61.340,185.745 61.096 L 186.327 60.853 186.654 61.594 C 187.061 62.514,187.431 62.667,189.247 62.667 C 191.200 62.667,191.167 62.692,191.167 61.240 C 191.167 59.979,190.935 59.167,190.574 59.167 C 190.186 59.167,190.160 59.714,190.513 60.443 C 191.055 61.564,190.938 61.667,189.109 61.667 C 187.157 61.667,187.270 61.799,186.669 58.795 C 186.478 57.840,186.190 57.379,186.140 57.948 M193.500 58.481 C 193.500 58.812,193.632 59.048,193.924 59.240 C 194.158 59.393,194.429 59.720,194.528 59.967 C 194.627 60.214,194.785 60.583,194.879 60.786 C 195.209 61.498,194.782 61.715,193.214 61.632 C 191.856 61.561,191.833 61.566,191.833 61.951 C 191.833 62.460,192.380 62.667,193.729 62.667 C 195.341 62.667,195.444 62.530,195.168 60.756 C 194.857 58.762,193.500 56.910,193.500 58.481 M186.137 59.875 C 186.098 60.144,185.953 60.265,185.625 60.303 C 185.072 60.366,185.031 60.114,185.537 59.759 C 186.045 59.404,186.199 59.434,186.137 59.875 M199.833 61.339 C 199.833 61.519,199.730 61.667,199.604 61.667 C 199.271 61.667,198.946 61.214,199.062 60.912 C 199.202 60.548,199.833 60.898,199.833 61.339 M190.090 63.708 C 189.803 64.117,189.913 64.303,190.480 64.370 C 191.071 64.441,191.279 63.771,190.742 63.527 C 190.405 63.373,190.305 63.401,190.090 63.708 M188.722 64.263 C 188.591 64.605,189.064 65.075,189.408 64.943 C 189.783 64.799,189.927 64.328,189.649 64.152 C 189.284 63.921,188.833 63.975,188.722 64.263 M198.379 71.942 C 195.039 73.125,195.852 76.608,199.676 77.497 C 201.602 77.945,202.563 78.391,202.821 78.956 C 203.994 81.531,198.789 82.343,197.520 79.783 C 196.980 78.695,196.070 78.646,196.102 79.707 C 196.205 83.104,203.084 83.698,204.171 80.405 C 204.865 78.300,203.785 77.100,200.427 76.249 C 197.265 75.446,196.581 73.715,199.146 73.003 C 200.718 72.566,201.912 73.065,202.701 74.488 C 203.174 75.342,204.094 75.013,203.903 74.058 C 203.538 72.233,200.666 71.133,198.379 71.942 M186.619 71.937 C 186.356 72.200,186.482 82.337,186.750 82.440 C 187.614 82.771,187.800 82.444,187.860 80.487 L 187.917 78.640 188.661 77.987 C 189.680 77.091,189.596 77.038,191.508 79.792 C 193.464 82.607,193.372 82.518,194.237 82.460 C 195.174 82.398,195.142 82.289,193.563 80.167 C 192.778 79.112,191.791 77.770,191.369 77.183 L 190.602 76.117 192.718 74.098 C 195.129 71.798,195.108 71.833,194.027 71.833 L 193.220 71.833 190.683 74.350 C 189.287 75.734,188.094 76.816,188.031 76.753 C 187.968 76.691,187.879 75.577,187.833 74.278 L 187.750 71.917 187.244 71.867 C 186.966 71.840,186.684 71.871,186.619 71.937 M208.954 72.458 C 208.809 72.802,208.266 74.208,207.748 75.583 C 207.229 76.958,206.745 78.233,206.671 78.417 C 206.321 79.287,205.359 81.782,205.274 82.040 C 205.204 82.251,205.293 82.359,205.602 82.436 C 206.302 82.612,206.726 82.293,206.985 81.397 C 207.622 79.194,207.651 79.172,209.926 79.169 C 212.142 79.166,212.152 79.172,212.838 80.916 C 213.418 82.389,213.513 82.494,214.282 82.497 C 214.862 82.500,215.116 82.267,214.876 81.951 C 214.791 81.840,214.623 81.487,214.502 81.167 C 214.380 80.846,214.151 80.283,213.993 79.917 C 213.835 79.550,213.048 77.637,212.245 75.667 C 210.662 71.784,210.697 71.840,209.817 71.836 C 209.281 71.834,209.189 71.900,208.954 72.458 M210.356 74.293 C 210.506 74.728,210.862 75.721,211.147 76.500 C 211.432 77.279,211.665 77.935,211.666 77.958 C 211.666 77.981,210.917 78.000,210.000 78.000 C 208.242 78.000,208.101 77.926,208.490 77.206 C 208.576 77.047,208.844 76.354,209.087 75.667 C 209.995 73.092,209.956 73.134,210.356 74.293 " stroke="none" fill="#050505" fill-rule="evenodd"></path><path id="path1" d="M9.917 4.691 C 7.212 5.582,5.358 7.440,4.685 9.936 C 4.427 10.893,4.421 87.535,4.679 88.350 C 5.552 91.105,7.395 92.963,9.936 93.648 C 10.434 93.783,30.902 93.833,84.561 93.833 L 158.500 93.833 158.500 49.167 L 158.500 4.500 84.458 4.513 C 36.172 4.522,10.243 4.584,9.917 4.691 M163.000 49.167 L 163.000 93.833 197.833 93.833 L 232.667 93.833 232.667 49.167 L 232.667 4.500 197.833 4.500 L 163.000 4.500 163.000 49.167 M237.167 49.167 L 237.167 93.833 313.308 93.833 C 367.206 93.833,389.616 93.781,390.017 93.654 C 392.752 92.788,394.635 90.920,395.315 88.397 C 395.573 87.440,395.579 10.798,395.321 9.983 C 394.448 7.229,392.605 5.370,390.064 4.685 C 389.566 4.551,368.519 4.500,313.272 4.500 L 237.167 4.500 237.167 49.167 M200.406 13.667 C 200.821 14.692,200.841 14.698,202.333 14.262 C 203.426 13.943,204.586 14.039,205.640 14.536 C 206.510 14.947,206.325 15.157,205.083 15.171 C 204.593 15.177,204.010 15.312,203.667 15.500 L 203.083 15.819 204.417 15.827 C 206.484 15.840,208.167 16.445,209.543 17.670 C 210.437 18.467,210.285 18.630,209.070 18.176 C 207.976 17.767,205.499 17.465,205.502 17.742 C 205.503 17.838,206.046 18.179,206.710 18.500 C 208.723 19.473,210.490 21.489,211.090 23.496 C 211.187 23.820,210.992 23.696,210.178 22.912 C 208.891 21.673,206.492 20.119,206.247 20.364 C 206.206 20.405,206.683 20.959,207.306 21.594 C 208.903 23.222,210.164 25.624,210.166 27.042 C 210.167 27.722,209.975 27.606,209.338 26.542 C 208.727 25.519,206.072 22.706,205.890 22.888 C 205.830 22.948,206.002 23.354,206.273 23.790 C 207.375 25.569,208.000 27.807,208.000 29.969 C 208.000 32.138,207.873 32.244,207.303 30.546 C 206.438 27.967,204.628 24.816,204.237 25.207 C 204.197 25.248,204.285 25.911,204.433 26.682 C 204.756 28.366,204.679 29.837,204.155 31.973 C 203.839 33.261,203.500 33.962,203.500 33.327 C 203.500 30.423,201.917 24.850,201.274 25.493 C 201.046 25.721,200.961 32.123,201.184 32.261 C 201.269 32.313,201.290 32.436,201.230 32.533 C 200.914 33.043,201.016 39.891,201.343 40.175 C 201.983 40.730,201.746 40.833,199.833 40.833 C 197.901 40.833,197.745 40.760,198.333 40.128 C 198.719 39.714,198.769 38.781,198.486 37.253 C 198.348 36.503,198.355 36.188,198.517 35.886 C 198.682 35.576,198.687 35.151,198.538 33.877 C 198.399 32.693,198.398 32.230,198.533 32.146 C 198.662 32.066,198.680 31.585,198.591 30.558 C 198.442 28.838,198.442 28.601,198.593 27.874 C 198.751 27.108,198.527 25.500,198.263 25.500 C 197.580 25.500,196.167 30.402,196.167 32.767 C 196.167 34.157,195.738 33.252,195.172 30.667 C 194.966 29.725,194.954 27.603,195.151 26.833 C 195.461 25.619,195.498 25.167,195.285 25.167 C 195.064 25.167,193.523 27.528,193.109 28.500 C 192.973 28.821,192.746 29.349,192.606 29.674 C 192.465 29.998,192.257 30.613,192.143 31.039 C 191.830 32.212,191.666 31.833,191.673 29.948 C 191.681 27.432,192.485 24.775,193.711 23.208 C 193.825 23.062,193.802 23.000,193.633 23.000 C 193.128 23.000,190.245 26.273,189.743 27.417 C 189.505 27.959,189.438 26.562,189.672 25.937 C 190.471 23.805,190.857 23.169,192.201 21.768 C 192.908 21.032,193.452 20.397,193.411 20.356 C 193.133 20.077,190.975 21.486,189.479 22.923 C 188.660 23.710,188.477 23.825,188.571 23.496 C 189.114 21.576,191.155 19.261,193.046 18.417 C 194.547 17.747,194.499 17.541,192.875 17.689 C 191.626 17.803,190.826 17.997,190.042 18.375 C 189.360 18.704,189.405 18.310,190.124 17.670 C 191.499 16.445,193.183 15.840,195.250 15.827 L 196.583 15.819 196.000 15.500 C 195.670 15.319,195.079 15.178,194.639 15.174 C 192.979 15.159,193.077 14.687,194.834 14.237 C 195.902 13.963,196.691 14.014,197.876 14.432 C 198.733 14.734,198.902 14.629,199.262 13.570 C 199.649 12.430,199.914 12.453,200.406 13.667 M189.583 38.081 C 192.587 39.054,195.198 40.672,198.658 43.704 C 199.823 44.725,199.722 44.746,201.715 43.069 C 205.959 39.500,209.459 37.789,212.982 37.562 C 215.771 37.382,219.200 38.164,216.625 38.393 C 212.196 38.787,207.569 40.911,202.625 44.819 C 201.050 46.064,201.045 45.894,202.698 47.351 L 204.062 48.553 204.531 47.991 C 204.864 47.592,205.000 47.246,205.000 46.798 C 205.000 46.282,205.060 46.167,205.327 46.167 C 206.091 46.167,206.173 47.661,205.473 48.794 L 205.127 49.353 205.483 49.732 C 206.688 51.015,208.003 51.119,208.532 49.973 C 209.105 48.732,210.371 49.101,210.467 50.536 C 210.634 53.066,207.367 53.586,204.894 51.423 C 204.191 50.808,204.001 50.715,203.787 50.882 C 203.393 51.189,202.835 52.205,202.834 52.615 C 202.833 53.127,202.596 53.216,202.250 52.833 C 201.866 52.409,201.983 51.226,202.478 50.531 C 202.673 50.257,202.833 49.953,202.833 49.858 C 202.833 49.612,200.094 47.333,199.798 47.333 C 199.566 47.333,196.833 49.599,196.833 49.792 C 196.833 49.842,197.029 50.284,197.269 50.774 C 197.597 51.444,197.678 51.804,197.598 52.232 C 197.402 53.276,196.667 53.463,196.667 52.468 C 196.667 51.869,196.078 50.833,195.737 50.833 C 195.608 50.833,195.058 51.190,194.516 51.625 C 192.137 53.537,189.167 52.967,189.167 50.600 C 189.167 49.217,190.248 48.752,190.948 49.834 C 191.800 51.153,192.141 51.179,193.708 50.044 C 194.640 49.370,194.598 49.536,194.083 48.567 C 193.559 47.582,193.543 46.790,194.037 46.296 L 194.408 45.925 194.553 46.671 C 194.633 47.081,194.883 47.661,195.108 47.959 C 195.600 48.610,195.618 48.603,197.250 47.078 L 198.417 45.987 197.917 45.565 C 197.241 44.995,194.598 43.018,193.645 42.370 C 191.794 41.110,188.449 39.567,186.417 39.034 C 184.725 38.591,184.335 38.517,183.118 38.409 C 181.868 38.297,181.836 38.284,182.273 38.057 C 183.600 37.369,187.422 37.381,189.583 38.081 M186.481 55.485 C 186.806 55.690,186.581 56.540,186.220 56.469 C 185.857 56.398,185.590 55.939,185.718 55.606 C 185.833 55.306,186.125 55.259,186.481 55.485 M213.500 56.367 C 213.500 56.534,213.410 56.815,213.300 56.991 C 213.147 57.236,213.145 57.553,213.293 58.363 C 213.662 60.378,213.886 62.336,213.763 62.459 C 213.655 62.568,212.326 62.596,209.833 62.541 C 209.421 62.532,208.821 62.528,208.500 62.532 C 207.916 62.540,207.649 62.543,205.000 62.566 C 203.904 62.576,203.484 62.511,203.144 62.283 C 202.745 62.014,202.654 62.010,202.144 62.234 C 201.836 62.370,201.306 62.526,200.968 62.580 C 200.524 62.651,200.322 62.781,200.243 63.047 C 199.761 64.674,198.454 65.416,196.690 65.063 C 195.989 64.923,196.197 64.667,197.013 64.667 C 197.721 64.667,198.629 64.184,199.313 63.445 C 199.740 62.983,199.696 62.500,199.227 62.500 C 198.381 62.500,198.075 61.343,198.665 60.375 C 199.241 59.429,200.085 59.702,200.279 60.897 C 200.397 61.621,200.759 61.772,201.569 61.433 C 202.207 61.167,202.255 60.667,201.644 60.667 C 200.890 60.667,201.165 59.609,201.959 59.450 C 203.499 59.142,204.523 59.865,203.862 60.794 C 203.376 61.476,203.638 61.667,205.062 61.667 C 206.366 61.667,206.827 61.412,206.843 60.683 C 206.852 60.277,206.865 60.270,207.051 60.574 C 207.897 61.952,209.500 62.060,209.500 60.738 C 209.500 60.184,209.799 60.225,209.864 60.788 C 209.932 61.371,210.663 61.798,210.893 61.388 C 210.989 61.216,210.948 60.929,210.776 60.568 C 210.588 60.173,210.565 59.979,210.698 59.898 C 210.990 59.717,211.333 60.334,211.333 61.041 L 211.333 61.684 212.208 61.634 C 213.062 61.585,213.083 61.571,213.067 61.083 C 213.032 59.998,212.619 57.389,212.393 56.822 C 212.215 56.377,212.197 56.108,212.325 55.772 L 212.497 55.321 212.998 55.692 C 213.274 55.896,213.500 56.200,213.500 56.367 M185.208 56.065 C 185.566 56.337,185.569 56.407,185.238 56.738 C 184.947 57.029,184.333 56.830,184.333 56.444 C 184.333 55.934,184.780 55.740,185.208 56.065 M215.395 57.042 C 215.769 60.892,215.712 62.333,215.184 62.333 C 215.124 62.333,215.053 61.605,215.027 60.716 C 215.000 59.826,214.908 58.728,214.823 58.276 C 214.611 57.162,214.627 56.440,214.867 56.200 C 215.214 55.852,215.291 55.974,215.395 57.042 M186.669 58.795 C 187.270 61.799,187.157 61.667,189.109 61.667 C 190.938 61.667,191.055 61.564,190.513 60.443 C 190.160 59.714,190.186 59.167,190.574 59.167 C 190.935 59.167,191.167 59.979,191.167 61.240 C 191.167 62.692,191.200 62.667,189.247 62.667 C 187.431 62.667,187.061 62.514,186.654 61.594 L 186.327 60.853 185.745 61.096 C 185.162 61.340,184.453 61.281,184.038 60.953 C 183.673 60.666,184.311 59.834,185.445 59.118 C 185.823 58.879,186.128 58.586,186.123 58.467 C 186.075 57.330,186.416 57.535,186.669 58.795 M194.470 58.651 C 195.147 59.586,195.552 62.095,195.082 62.438 C 194.309 63.004,191.833 62.632,191.833 61.951 C 191.833 61.566,191.856 61.561,193.214 61.632 C 194.782 61.715,195.209 61.498,194.879 60.786 C 194.785 60.583,194.627 60.214,194.528 59.967 C 194.429 59.720,194.158 59.393,193.924 59.240 C 193.632 59.048,193.500 58.812,193.500 58.481 C 193.500 57.796,193.902 57.867,194.470 58.651 M185.537 59.759 C 185.031 60.114,185.072 60.366,185.625 60.303 C 185.953 60.265,186.098 60.144,186.137 59.875 C 186.199 59.434,186.045 59.404,185.537 59.759 M199.062 60.912 C 198.946 61.214,199.271 61.667,199.604 61.667 C 199.956 61.667,199.876 61.035,199.498 60.832 C 199.233 60.690,199.141 60.707,199.062 60.912 M191.005 64.062 C 190.911 64.308,190.750 64.402,190.480 64.370 C 189.913 64.303,189.803 64.117,190.090 63.708 C 190.443 63.204,191.218 63.505,191.005 64.062 M189.649 64.152 C 189.927 64.328,189.783 64.799,189.408 64.943 C 189.064 65.075,188.591 64.605,188.722 64.263 C 188.833 63.975,189.284 63.921,189.649 64.152 M201.907 72.011 C 203.369 72.558,204.470 74.244,203.722 74.791 C 203.273 75.119,203.007 75.041,202.701 74.488 C 202.115 73.432,201.204 72.832,200.188 72.834 C 198.326 72.838,197.003 74.345,198.042 75.279 C 198.588 75.772,198.656 75.799,200.427 76.249 C 203.785 77.100,204.865 78.300,204.171 80.405 C 203.084 83.698,196.205 83.104,196.102 79.707 C 196.070 78.646,196.980 78.695,197.520 79.783 C 198.789 82.343,203.994 81.531,202.821 78.956 C 202.563 78.391,201.602 77.945,199.676 77.497 C 197.136 76.906,196.111 75.807,196.417 73.999 C 196.733 72.130,199.524 71.119,201.907 72.011 M187.833 74.278 C 187.879 75.577,187.968 76.691,188.031 76.753 C 188.094 76.816,189.287 75.734,190.683 74.350 L 193.220 71.833 194.027 71.833 C 195.108 71.833,195.129 71.798,192.718 74.098 L 190.602 76.117 191.369 77.183 C 191.791 77.770,192.778 79.112,193.563 80.167 C 195.142 82.289,195.174 82.398,194.237 82.460 C 193.372 82.518,193.464 82.607,191.508 79.792 C 189.596 77.038,189.680 77.091,188.661 77.987 L 187.917 78.640 187.860 80.487 C 187.805 82.279,187.792 82.337,187.402 82.435 C 186.481 82.666,186.500 82.776,186.500 77.200 C 186.500 71.686,186.485 71.793,187.244 71.867 L 187.750 71.917 187.833 74.278 M210.600 71.961 C 210.701 72.028,211.441 73.696,212.245 75.667 C 213.048 77.637,213.835 79.550,213.993 79.917 C 214.151 80.283,214.380 80.846,214.502 81.167 C 214.623 81.487,214.791 81.840,214.876 81.951 C 215.116 82.267,214.862 82.500,214.282 82.497 C 213.513 82.494,213.418 82.389,212.838 80.916 C 212.152 79.172,212.142 79.166,209.926 79.169 C 207.651 79.172,207.622 79.194,206.985 81.397 C 206.726 82.293,206.302 82.612,205.602 82.436 C 205.293 82.359,205.204 82.251,205.274 82.040 C 205.359 81.782,206.321 79.287,206.671 78.417 C 206.745 78.233,207.229 76.958,207.748 75.583 C 209.243 71.616,209.123 71.833,209.817 71.836 C 210.147 71.837,210.499 71.894,210.600 71.961 M209.701 73.958 C 209.606 74.210,209.329 74.979,209.087 75.667 C 208.844 76.354,208.576 77.047,208.490 77.206 C 208.101 77.926,208.242 78.000,210.000 78.000 C 210.917 78.000,211.666 77.981,211.666 77.958 C 211.665 77.935,211.432 77.279,211.147 76.500 C 210.862 75.721,210.506 74.728,210.356 74.293 C 210.041 73.380,209.939 73.328,209.701 73.958 " stroke="none" fill="#fbfbfb" fill-rule="evenodd"></path></g></svg>